<svg xmlns="http://www.w3.org/2000/svg" viewBox="0 0 1929.38 421.62"><defs><style>.cls-1{fill:#fff;}</style></defs><g id="Layer_2" data-name="Layer 2"><g id="Layer_1-2" data-name="Layer 1"><path class="cls-1" d="M369.21,404.78H1.17a1.18,1.18,0,0,1,0-2.35h368a1.18,1.18,0,0,1,0,2.35Z"/><path class="cls-1" d="M236.93,181.33a1.18,1.18,0,0,1-1.17-1.17V171.5a1.17,1.17,0,0,1,2.34,0v8.66A1.18,1.18,0,0,1,236.93,181.33Z"/><path class="cls-1" d="M245.83,181.56a1.18,1.18,0,0,1-1.17-1.17V171.5a1.17,1.17,0,0,1,2.34,0v8.89A1.18,1.18,0,0,1,245.83,181.56Z"/><path class="cls-1" d="M255,181.56a1.18,1.18,0,0,1-1.17-1.17v-8.65a1.17,1.17,0,1,1,2.34,0v8.65A1.18,1.18,0,0,1,255,181.56Z"/><path class="cls-1" d="M264.09,181.8a1.17,1.17,0,0,1-1.17-1.17V172a1.17,1.17,0,0,1,2.34,0v8.66A1.17,1.17,0,0,1,264.09,181.8Z"/><path class="cls-1" d="M321.45,193.5H179.58a1.18,1.18,0,0,1-1.18-1.17V159.81a1.18,1.18,0,0,1,1.18-1.18H321.45a1.18,1.18,0,0,1,1.17,1.18v32.52A1.18,1.18,0,0,1,321.45,193.5Zm-140.7-2.34H320.28V161H180.75Z"/><path class="cls-1" d="M288,150.45H213.05a1.17,1.17,0,0,0-1.17,1.17v8.18a1.18,1.18,0,0,0,1.17,1.18H288a1.18,1.18,0,0,0,1.17-1.18v-8.18A1.17,1.17,0,0,0,288,150.45Zm-73.75,8.19v-5.85H286.8v5.85Z"/><path class="cls-1" d="M266.19,142.26H234.82a1.17,1.17,0,0,0-1.17,1.16v8.2a1.18,1.18,0,0,0,1.17,1.17h31.37a1.18,1.18,0,0,0,1.18-1.17v-8.2A1.17,1.17,0,0,0,266.19,142.26ZM236,150.45v-5.86h29v5.86Z"/><rect class="cls-1" x="236" y="144.59" width="29.02" height="5.86"/><path class="cls-1" d="M336.43,207.77H164.35a1.18,1.18,0,0,1-1.17-1.17V192.33a1.18,1.18,0,0,1,1.17-1.17H336.43a1.18,1.18,0,0,1,1.17,1.17V206.6A1.18,1.18,0,0,1,336.43,207.77Zm-170.9-2.34H335.26V193.5H165.53Z"/><path class="cls-1" d="M341.35,226.73H159.67a1.18,1.18,0,0,1-1.17-1.17v-19a1.18,1.18,0,0,1,1.17-1.17H341.35a1.18,1.18,0,0,1,1.17,1.17v19A1.18,1.18,0,0,1,341.35,226.73Zm-180.5-2.35H340.17V207.77H160.85Z"/><path class="cls-1" d="M346.73,233.05H154.29a1.15,1.15,0,0,1-.85-.37l-.23-.24-5-5.9a1.15,1.15,0,0,1-.27-.75c0-.64.53-1.41,1.17-1.41h202a1.18,1.18,0,0,1,.83.35l.23.23a1.17,1.17,0,0,1,.09,1.56l-4.55,5.67A1.24,1.24,0,0,1,346.73,233.05Zm0-1.42h0ZM154.8,230.7H346l3.19-4H151.45Z"/><path class="cls-1" d="M339.24,244.74H157.57a1.18,1.18,0,0,1-1.17-1.17V232.11a1.18,1.18,0,0,1,1.17-1.18H339.24a1.18,1.18,0,0,1,1.17,1.18v11.46A1.18,1.18,0,0,1,339.24,244.74Zm-180.5-2.34H338.07v-9.12H158.74Z"/><path class="cls-1" d="M208.84,242.4H157.57a1.19,1.19,0,0,0-1.18,1.17v159.8a1.2,1.2,0,0,0,1.18,1.18h51.27a1.19,1.19,0,0,0,1.17-1.18V243.57A1.18,1.18,0,0,0,208.84,242.4Zm-1.18,159.8H158.74V244.75h48.92Z"/><path class="cls-1" d="M287.5,244.75v25.11c.39,1.08.72,2.17,1,3.28.06.2.1.39.15.59.14.56.27,1.13.38,1.7l.12.63c.21,1.15.38,2.33.49,3.51,0,.29.06.56.07.85s0,.69.07,1,0,.4,0,.6,0,.42,0,.62,0,.6,0,.9V244.75Zm52.91-2.25a1.2,1.2,0,0,0-.47-.1H288.67a1.18,1.18,0,0,0-1.17,1.17v159.8a1.19,1.19,0,0,0,1.17,1.18h51.27a1.19,1.19,0,0,0,1.17-1.18V243.57A1.17,1.17,0,0,0,340.41,242.5Zm-1.64,2.25V402.2H289.85V244.75Zm-51.27,0v25.11c.39,1.08.72,2.17,1,3.28l.15.59c.14.56.27,1.13.38,1.7l.12.63c.21,1.15.38,2.33.49,3.51,0,.29.06.56.07.85s0,.69.07,1,0,.4,0,.6,0,.42,0,.62,0,.6,0,.9V244.75Z"/><path class="cls-1" d="M183.32,248.71a10.54,10.54,0,1,0,0,21.07,10.54,10.54,0,0,0,0-21.07Zm0,18.72a8.19,8.19,0,0,1,0-16.38,8.19,8.19,0,0,1,0,16.38Z"/><path class="cls-1" d="M191.28,259.24a8,8,0,0,1-8,8.19,8.19,8.19,0,0,1,0-16.38A8,8,0,0,1,191.28,259.24Z"/><path class="cls-1" d="M316.54,248.71a10.54,10.54,0,1,0,0,21.07,10.54,10.54,0,0,0,0-21.07Zm0,18.72a8.19,8.19,0,1,1,0-16.38,8.19,8.19,0,0,1,0,16.38Z"/><path class="cls-1" d="M324.49,259.24a8,8,0,0,1-7.95,8.19,8.19,8.19,0,1,1,0-16.38A8,8,0,0,1,324.49,259.24Z"/><path class="cls-1" d="M276.49,185.31h-52.2a1.18,1.18,0,0,1-1.17-1.17V168a1.18,1.18,0,0,1,1.17-1.18h52.2a1.18,1.18,0,0,1,1.18,1.18v16.14A1.18,1.18,0,0,1,276.49,185.31Zm-51-2.34h49.86v-13.8H225.46Z"/><path class="cls-1" d="M209.54,184.37A8.43,8.43,0,1,1,218,176,8.44,8.44,0,0,1,209.54,184.37Zm0-14.5a6.08,6.08,0,1,0,6.09,6.08A6.09,6.09,0,0,0,209.54,169.87Z"/><path class="cls-1" d="M291.72,184.37a8.43,8.43,0,1,1,0-16.85,8.43,8.43,0,1,1,0,16.85Zm0-14.5a6.08,6.08,0,1,0,0,12.16,6.08,6.08,0,0,0,0-12.16Z"/><path class="cls-1" d="M199.94,286.16H166.7a1.18,1.18,0,0,1,0-2.35h33.24a1.18,1.18,0,0,1,0,2.35Z"/><path class="cls-1" d="M200.64,322.19H166.22a1.17,1.17,0,1,1,0-2.34h34.42a1.17,1.17,0,1,1,0,2.34Z"/><path class="cls-1" d="M200.18,385.83H165.76a1.17,1.17,0,0,1,0-2.34h34.42a1.17,1.17,0,0,1,0,2.34Z"/><path class="cls-1" d="M200.64,274.45H165.76a1.18,1.18,0,0,0-1.17,1.17V403.37a1.19,1.19,0,0,0,1.17,1.18h34.88a1.19,1.19,0,0,0,1.18-1.18V275.62A1.18,1.18,0,0,0,200.64,274.45ZM166.93,402.2V276.8h32.54V402.2Z"/><path class="cls-1" d="M194.32,294.57H171.84a1.18,1.18,0,0,0-1.17,1.18v13.1a1.18,1.18,0,0,0,1.17,1.17h22.48a1.18,1.18,0,0,0,1.18-1.17v-13.1A1.18,1.18,0,0,0,194.32,294.57Zm-1.17,13.11H173V296.92h20.13Z"/><rect class="cls-1" x="173.02" y="296.92" width="20.13" height="10.76"/><path class="cls-1" d="M331.52,286.16H297.57a1.18,1.18,0,0,1,0-2.35h33.95a1.18,1.18,0,0,1,0,2.35Z"/><path class="cls-1" d="M331.75,322.19H297.1a1.17,1.17,0,1,1,0-2.34h34.65a1.17,1.17,0,1,1,0,2.34Z"/><path class="cls-1" d="M331.75,385.83H297.57a1.17,1.17,0,0,1,0-2.34h34.18a1.17,1.17,0,0,1,0,2.34Z"/><path class="cls-1" d="M331.75,274.45H297.1a1.18,1.18,0,0,0-1.18,1.17V403.37a1.19,1.19,0,0,0,1.18,1.18h34.65a1.19,1.19,0,0,0,1.17-1.18V275.62A1.18,1.18,0,0,0,331.75,274.45ZM298.27,402.2V276.8h32.31V402.2Z"/><path class="cls-1" d="M325.66,294.57H303.19a1.18,1.18,0,0,0-1.17,1.18v13.1a1.18,1.18,0,0,0,1.17,1.17h22.47a1.18,1.18,0,0,0,1.18-1.17v-13.1A1.18,1.18,0,0,0,325.66,294.57Zm-1.17,13.11H304.36V296.92h20.13Z"/><rect class="cls-1" x="304.36" y="296.92" width="20.13" height="10.76"/><path class="cls-1" d="M254.25,260.18H244.19a1.17,1.17,0,0,1-1.17-1l-1.87-15.44a1.21,1.21,0,0,1,.29-.93,1.18,1.18,0,0,1,.88-.39h13.81a1.18,1.18,0,0,1,.88.39,1.21,1.21,0,0,1,.29.93l-1.88,15.44A1.17,1.17,0,0,1,254.25,260.18Zm-9-2.34h8l1.59-13.1H243.63Z"/><path class="cls-1" d="M288.67,404.55H208.83a1.18,1.18,0,0,1-1.17-1.18V283.58a41.1,41.1,0,1,1,82.19,0V403.37A1.18,1.18,0,0,1,288.67,404.55ZM210,402.2H287.5V283.58a38.75,38.75,0,1,0-77.49,0Z"/><path class="cls-1" d="M280,404.78H217.5a1.18,1.18,0,0,1-1.17-1.17V286.39a32.42,32.42,0,0,1,27-31.81,1.2,1.2,0,0,1,1.34,1,1.16,1.16,0,0,1-1,1.34,30.07,30.07,0,0,0-25,29.5v116h60.17v-116a30.26,30.26,0,0,0-23.9-29.28,1.17,1.17,0,0,1-.89-1.39,1.1,1.1,0,0,1,1.39-.89,32.63,32.63,0,0,1,25.74,31.56V403.61A1.18,1.18,0,0,1,280,404.78Z"/><path class="cls-1" d="M381.39,404.08h0a1.18,1.18,0,0,1-1.14-1.21L381.85,358a1.1,1.1,0,0,1,1.21-1.14A1.19,1.19,0,0,1,384.2,358L382.56,403A1.18,1.18,0,0,1,381.39,404.08Zm26.68,0a1.18,1.18,0,0,1-1.17-1.14L405.73,358a1.18,1.18,0,0,1,1.14-1.21h0a1.17,1.17,0,0,1,1.17,1.14l1.18,44.93a1.18,1.18,0,0,1-1.14,1.2Zm-1.17-48.66a1.18,1.18,0,0,1-1.17-1.14l-1.17-43.53a1.17,1.17,0,0,1,1.14-1.2,1.14,1.14,0,0,1,1.2,1.14l1.17,43.52a1.18,1.18,0,0,1-1.14,1.21Zm-23.88,0h0a1.19,1.19,0,0,1-1.13-1.22l1.41-43.52a1.16,1.16,0,0,1,1.17-1.13h0a1.17,1.17,0,0,1,1.13,1.21l-1.4,43.52A1.19,1.19,0,0,1,383,355.42Zm1.64-46.8h0a1.18,1.18,0,0,1-1.13-1.22L385.13,263a1.17,1.17,0,0,1,1.17-1.14h0a1.17,1.17,0,0,1,1.13,1.22l-1.64,44.45A1.17,1.17,0,0,1,384.66,308.62Zm21.07,0a1.18,1.18,0,0,1-1.17-1.14L403.15,263a1.19,1.19,0,0,1,1.13-1.22h0A1.19,1.19,0,0,1,405.5,263l1.4,44.45a1.19,1.19,0,0,1-1.13,1.22Zm-1.41-47.5a1.18,1.18,0,0,1-1.17-1.14l-.46-15.68a1.17,1.17,0,1,1,2.34-.06l.47,15.68a1.18,1.18,0,0,1-1.14,1.2Zm-17.79,0a1.18,1.18,0,0,1-1.17-1.17V244.27a1.17,1.17,0,1,1,2.34,0V260A1.18,1.18,0,0,1,386.53,261.12Z"/><path class="cls-1" d="M392.26,232a.08.08,0,0,1,0,0,1,1,0,0,1-.24.16c-5.7,3-4.48,7.92-4.32,8.47a1.18,1.18,0,0,1-.06.79,1.15,1.15,0,0,1-.75.66,1.19,1.19,0,0,1-.32,0,1.17,1.17,0,0,1-1.07-.71.88.88,0,0,1,0-.15c-.74-2.59-.5-7.67,4.85-10.82.21-.13.42-.24.65-.36a1.17,1.17,0,0,1,1.35,1.87Z"/><path class="cls-1" d="M391.21,232.34a1.17,1.17,0,0,1-.37-2.28,8.49,8.49,0,0,0,3.24-2.23,1.17,1.17,0,0,1,1.65-.12,1.18,1.18,0,0,1,.12,1.66,10.8,10.8,0,0,1-4.27,2.91A1.19,1.19,0,0,1,391.21,232.34Z"/><path class="cls-1" d="M399.18,232.34a1.06,1.06,0,0,1-.52-.13,20.19,20.19,0,0,1-4.29-2.79,1.17,1.17,0,0,1,1.65-1.65,19.16,19.16,0,0,0,3.68,2.35,1.17,1.17,0,0,1-.52,2.22Z"/><path class="cls-1" d="M399.75,231.46a1.15,1.15,0,0,1-1.42.58h0l-.13-.06a3.15,3.15,0,0,0-.47-.2h0a8.92,8.92,0,0,0-5.48.27l-.18.06s0,0,0,0c-.21.07-.33.13-.34.13l-.05,0-.06,0-.17,0-.19,0-.18,0-.15,0-.12,0-.12-.05-.1-.07a.53.53,0,0,1-.14-.12.94.94,0,0,1-.1-.1l0-.06-.08-.13a.25.25,0,0,0,0-.07l0-.1h0a1.16,1.16,0,0,1,0-.18,1,1,0,0,1,0-.17v0a1,1,0,0,1,0-.17,1.16,1.16,0,0,1,0-.18.71.71,0,0,1,.08-.18,1,1,0,0,1,.08-.14.75.75,0,0,1,.12-.14.53.53,0,0,1,.12-.1l0,0,.11-.07.1-.05.1,0,.09,0h0l.08,0a.54.54,0,0,1,.17-.07,13.69,13.69,0,0,1,2.9-.73h.08a11,11,0,0,1,1.84-.08l.28,0a7.51,7.51,0,0,1,2.93.77,1.2,1.2,0,0,1,.51.51A1.16,1.16,0,0,1,399.75,231.46Z"/><path class="cls-1" d="M405,241.24a1.42,1.42,0,0,1-.07.22,1.17,1.17,0,0,1-1.07.71l-.25,0a1.2,1.2,0,0,1-.82-.68,1.14,1.14,0,0,1-.07-.71c1.19-5.6-4.48-8.51-4.54-8.54a1.16,1.16,0,0,1-.47-.43h0l0-.09a1.13,1.13,0,0,1,0-1,1.17,1.17,0,0,1,1.57-.53l.51.28.52.32C402.81,232.41,406.11,236.09,405,241.24Z"/><path class="cls-1" d="M395,227.43a1.39,1.39,0,0,1-1.4-1.41,1.22,1.22,0,0,1,.34-.83l.24-.23c.67-.68,1.91,0,2.12.23a1.22,1.22,0,0,1,.34.83A1.43,1.43,0,0,1,395,227.43Zm0-.94-.36.36a.66.66,0,0,0,.36.11Zm.47-.47h.47a1,1,0,0,0-.84-.93H395v0h0v.69h0V226h0v-.2l.21.2Zm-.47-.92a1,1,0,0,0-.7.92h.7Z"/><path class="cls-1" d="M395.2,228.37a1.43,1.43,0,1,1,0-2.82,1.41,1.41,0,0,1,0,2.82Zm.23-1.5-.18,1a1,1,0,0,0,.65-.93,1,1,0,0,0-.65-.91l0,.84Zm-.23.31h0Zm0,0h0Zm-.1-1.16.07.88h0V226Zm.1,0v.86l0-.85Z"/><path class="cls-1" d="M395.2,229.53a1.48,1.48,0,0,1-1.64-1.41,1.52,1.52,0,0,1,1.64-1.63,1.66,1.66,0,0,1,1.63,1.63,1.16,1.16,0,0,1-.34.83A1.93,1.93,0,0,1,395.2,229.53Zm-.71-1.41a.68.68,0,0,0,.71.71.88.88,0,0,0,.7-.75.92.92,0,0,0-.7-.9h0a.58.58,0,0,0-.36.12l.37.36v.46Zm1.17,0h-.46v-.46Z"/><path class="cls-1" d="M395,227a1.45,1.45,0,0,1-.28,0,1.16,1.16,0,0,1-.85-1.41l.23-.94a1.17,1.17,0,0,1,2.27.56l-.24.94A1.15,1.15,0,0,1,395,227Z"/><path class="cls-1" d="M561.1,187.63a12.86,12.86,0,0,1-1.09,2c-3.14,4.76-10.08,9.32-18,14.5l-.76.5c-3.13,2-6.41,4.23-9.65,6.55-16.43,11.79-31.92,27.63-22.21,53.42.29.78.6,1.56.94,2.35A74.91,74.91,0,0,0,515.63,277l.2.31a1.09,1.09,0,0,1,.13.34,1.15,1.15,0,0,1-1.13,1.45,1.15,1.15,0,0,1-.93-.46l-.07-.09-.17-.29c-21.73-35.12-3.17-54.85,16.54-69l.11-.07c3.52-2.52,7.08-4.85,10.44-7.06,8.3-5.45,15.5-10.18,17.88-14.82.11-.21.21-.43.3-.65a1.89,1.89,0,0,1,.19-.3l.13-.12a1.18,1.18,0,0,1,.61-.28,1,1,0,0,1,.38,0l.11,0,.11,0a1.11,1.11,0,0,1,.49.39.21.21,0,0,1,.06.1.51.51,0,0,1,.09.16v0A1.16,1.16,0,0,1,561.1,187.63Z"/><path class="cls-1" d="M606.43,277.82c-.09.16-.19.31-.29.47l-.18.29a1.17,1.17,0,0,1-1,.55,1.16,1.16,0,0,1-.62-.17l-.09-.07a1.18,1.18,0,0,1-.29-1.55l.2-.31A74.91,74.91,0,0,0,609.44,267c.34-.79.66-1.57.94-2.35,8.93-23.72-3.45-39-18.25-50.5-4.18-3.24-8.56-6.18-12.7-8.92l-1.5-1C570,199,563.11,194.43,560,189.65a12.53,12.53,0,0,1-.82-1.46c-.09-.19-.18-.38-.26-.57a1.19,1.19,0,0,1,0-.89,1.89,1.89,0,0,1,.19-.3l.13-.12a.93.93,0,0,1,.33-.21,1.24,1.24,0,0,1,.66-.06l.11,0a1.09,1.09,0,0,1,.6.43.18.18,0,0,1,.06.09.51.51,0,0,1,.09.16v0c2,4.84,9.45,9.77,18.11,15.48C601.31,216.82,631.52,236.74,606.43,277.82Z"/><path class="cls-1" d="M605.44,291.54H516a1.18,1.18,0,0,1,0-2.35h89.44a1.18,1.18,0,0,1,0,2.35Z"/><path class="cls-1" d="M516.24,278.43V402.21a.78.78,0,0,1,0,.22,1.19,1.19,0,0,1-1.15.95,1.17,1.17,0,0,1-1.15-.95.78.78,0,0,1,0-.22V278.43a1.17,1.17,0,0,1,1.17-1.17,1.2,1.2,0,0,1,.89.42A1.1,1.1,0,0,1,516.24,278.43Z"/><path class="cls-1" d="M612.23,265.8a1.18,1.18,0,0,1-1.17,1.17H509a1.18,1.18,0,0,1,0-2.35H611.06A1.19,1.19,0,0,1,612.23,265.8Z"/><path class="cls-1" d="M605,279.37H514.83a1.17,1.17,0,0,1,0-2.34H605a1.17,1.17,0,0,1,0,2.34Z"/><path class="cls-1" d="M606.61,278.43V402.21a1.5,1.5,0,0,1,0,.22,1.18,1.18,0,0,1-2.31,0,1.5,1.5,0,0,1,0-.22V278.43a1.18,1.18,0,0,1,1.17-1.17,1.26,1.26,0,0,1,.28,0,1.18,1.18,0,0,1,.9,1.13Z"/><path class="cls-1" d="M528.65,403.38a1.18,1.18,0,0,1-1.18-1.17l-.23-69.49c-.26-23.41,31.75-34.36,33.11-34.81a1.17,1.17,0,0,1,.74,2.22c-1.29.43-31.75,10.84-31.5,32.57l.23,69.51a1.18,1.18,0,0,1-1.17,1.17Z"/><path class="cls-1" d="M592.79,404.55h0a1.18,1.18,0,0,1-1.17-1.18l.23-70.65c0-21.82-30.21-32.16-31.5-32.59a1.17,1.17,0,0,1-.74-1.48,1.18,1.18,0,0,1,1.48-.74c1.35.45,33.1,11.32,33.1,34.81L594,403.37A1.19,1.19,0,0,1,592.79,404.55Z"/><path class="cls-1" d="M610.38,264.62h-101c-9.71-25.79,5.78-41.63,22.21-53.42a58.84,58.84,0,0,1,27.92-6.94,58,58,0,0,1,32.58,9.86C606.93,225.6,619.31,240.9,610.38,264.62Z"/><path class="cls-1" d="M593.45,212.18l-1.32,1.94a58,58,0,0,0-32.58-9.86,58.84,58.84,0,0,0-27.92,6.94l-.33.18-1.1-2h0l.11-.06a60.61,60.61,0,0,1,11-4.61,62.18,62.18,0,0,1,38.15.55A59.42,59.42,0,0,1,593.45,212.18Z"/><path class="cls-1" d="M559.78,188.36a1.18,1.18,0,0,1-1.17-1.18V175.25a1.17,1.17,0,1,1,2.34,0v11.93A1.18,1.18,0,0,1,559.78,188.36Z"/><path class="cls-1" d="M482.05,291.77a1.19,1.19,0,0,1-1-.55c-8.08-12.92,1.69-19.39,8.16-23.68,2.37-1.58,4.61-3.06,5.09-4.27a1.17,1.17,0,1,1,2.18.85c-.75,1.9-3.06,3.43-6,5.37-6.72,4.46-14.33,9.5-7.46,20.49a1.17,1.17,0,0,1-.38,1.61A1.15,1.15,0,0,1,482.05,291.77Z"/><path class="cls-1" d="M508.74,291.77a1.2,1.2,0,0,1-.62-.18,1.18,1.18,0,0,1-.37-1.61c6.88-11-.74-16-7.46-20.49-2.93-1.94-5.24-3.47-6-5.37a1.17,1.17,0,0,1,.66-1.52,1.21,1.21,0,0,1,1.52.67c.47,1.21,2.71,2.69,5.09,4.27,6.46,4.28,16.23,10.76,8.16,23.68A1.2,1.2,0,0,1,508.74,291.77Z"/><path class="cls-1" d="M477.61,292.24a1.17,1.17,0,0,1-1.16-1,1.15,1.15,0,0,1,1-1.31,134.49,134.49,0,0,1,35.2,0,1.19,1.19,0,0,1,1,1.31,1.26,1.26,0,0,1-1.31,1,132.41,132.41,0,0,0-34.58,0Z"/><path class="cls-1" d="M504.35,272.39a15.62,15.62,0,0,0-17.05-.65l-1.13-2.06a17.93,17.93,0,0,1,19.48.77Z"/><path class="cls-1" d="M495.4,264.87a1.18,1.18,0,0,1-1.17-1.18v-3.51a1.17,1.17,0,1,1,2.34,0v3.51A1.18,1.18,0,0,1,495.4,264.87Z"/><path class="cls-1" d="M479,312.12a1.18,1.18,0,0,1-1.17-1.17V291.06a1.17,1.17,0,0,1,2.34,0V311A1.18,1.18,0,0,1,479,312.12Z"/><path class="cls-1" d="M467.54,314.47a1.17,1.17,0,0,1-.13-2.34l18.73-2.1,28.23.22a1.18,1.18,0,0,1,0,2.35h0l-28.09-.24-18.59,2.1Z"/><path class="cls-1" d="M515.54,319.62a1.19,1.19,0,0,1-1.18,1.17H486.27l-17.56,1.75-1.06.11h-.11a1.18,1.18,0,0,1-1.17-1.06v-.12a1.16,1.16,0,0,1,1.05-1.16l1.29-.13,17.44-1.74h28.21A1.19,1.19,0,0,1,515.54,319.62Z"/><path class="cls-1" d="M468.71,313.53v88.68a1.5,1.5,0,0,1,0,.22,1.19,1.19,0,0,1-1.15.95,1.17,1.17,0,0,1-1.15-.95.78.78,0,0,1,0-.22v-88.8a1.17,1.17,0,0,1,2.34.12Z"/><path class="cls-1" d="M489.92,330.08l-.37.13c-2.14.77-10.77,4.29-10.77,10.46l.22,19.42v1.16c0,.65-.47,1.05-1.17,1.19a1.16,1.16,0,0,1-1.17-1.16v-1.19l-.23-19.41c0-8.12,10.62-12.1,12.74-12.82l.19-.05a1.2,1.2,0,0,1,.5,0h0a.2.2,0,0,1,.11,0,1.09,1.09,0,0,1,.66.71A1.17,1.17,0,0,1,489.92,330.08Z"/><path class="cls-1" d="M502.66,340.67v20.59a1.18,1.18,0,1,1-2.35,0V340.67c0-6.47-8.93-9.85-10.76-10.46l-.33-.12a1.17,1.17,0,0,1-.8-1.44,1.22,1.22,0,0,1,.94-.84,1.2,1.2,0,0,1,.5,0h0l.11,0C491.33,328.31,502.66,332.14,502.66,340.67Z"/><path class="cls-1" d="M513.9,320.79v39.54a1.17,1.17,0,0,0-.71-.24H502.66V340.67c0-8.53-11.33-12.36-12.67-12.79a.2.2,0,0,0-.11,0h0a1.2,1.2,0,0,0-.5,0l-.19.05c-2.12.72-12.74,4.7-12.74,12.82l.23,19.41h-7a1.16,1.16,0,0,0-.94.47v-38l17.56-1.75Z"/><path class="cls-1" d="M514.36,361.26a1.19,1.19,0,0,1-.46.94,1.17,1.17,0,0,1-.71.24H469.65a1.18,1.18,0,0,1-.94-.48,1.17,1.17,0,0,1,.94-1.87h43.54a1.17,1.17,0,0,1,1.17,1.17Z"/><path class="cls-1" d="M477.84,401.5a1.16,1.16,0,0,1-1.17-1.15l-.24-18.72c0-6.7,7.91-10.3,12.62-11.84a1.21,1.21,0,0,1,1.55.72,1.12,1.12,0,0,1-.69,1.45c-3.43,1.14-11.13,4.24-11.13,9.65l.23,18.7a1.17,1.17,0,0,1-1.16,1.19Z"/><path class="cls-1" d="M501.48,401.5a1.18,1.18,0,0,1-1.17-1.17V381.61c0-6.4-10.63-9.5-11.09-9.63a1.17,1.17,0,1,1,.65-2.25c1.3.37,12.79,3.87,12.79,11.88v18.72A1.18,1.18,0,0,1,501.48,401.5Z"/><path class="cls-1" d="M402.79,241.46H387.6a1.18,1.18,0,0,0,.06-.79c-.16-.55-1.38-5.5,4.32-8.47a1,1,0,0,0,.24-.16,8.92,8.92,0,0,1,5.48-.27h0a1.16,1.16,0,0,0,.47.43c.06,0,5.73,2.94,4.54,8.54A1.14,1.14,0,0,0,402.79,241.46Z"/><path class="cls-1" d="M407.61,242.63a1.18,1.18,0,0,1-1.18,1.18H384a1.18,1.18,0,0,1,0-2.35h22.48A1.18,1.18,0,0,1,407.61,242.63Z"/><path class="cls-1" d="M408.31,262.52H382.79a1.17,1.17,0,0,1,0-2.34h25.52a1.17,1.17,0,0,1,0,2.34Z"/><path class="cls-1" d="M410.41,310.49h-30.2a1.18,1.18,0,0,1,0-2.35h30.2a1.18,1.18,0,0,1,0,2.35Z"/><path class="cls-1" d="M411.35,357.52h-34a1.17,1.17,0,0,1,0-2.34h34a1.17,1.17,0,0,1,0,2.34Z"/><path class="cls-1" d="M449.05,404.08a1.18,1.18,0,0,1-1.18-1.14l-.94-36.27a1.17,1.17,0,0,1,1.14-1.2h0a1.17,1.17,0,0,1,1.17,1.14l.94,36.27a1.18,1.18,0,0,1-1.14,1.2Zm-21.55,0h0a1.18,1.18,0,0,1-1.13-1.21l1.17-36.27a1.09,1.09,0,0,1,1.22-1.13,1.18,1.18,0,0,1,1.13,1.21L428.68,403A1.19,1.19,0,0,1,427.5,404.08Zm20.61-39.31a1.18,1.18,0,0,1-1.18-1.14L446,328.3a1.16,1.16,0,0,1,1.14-1.2h0a1.17,1.17,0,0,1,1.17,1.14l.94,35.33a1.17,1.17,0,0,1-1.14,1.2Zm-19.2,0h0a1.17,1.17,0,0,1-1.13-1.21l1.17-35.33a1.17,1.17,0,0,1,2.34.08l-1.17,35.33A1.17,1.17,0,0,1,428.91,364.77Zm1.17-37.91H430a1.18,1.18,0,0,1-1.12-1.22l1.4-36a1.17,1.17,0,0,1,1.22-1.13,1.19,1.19,0,0,1,1.13,1.22l-1.41,36A1.16,1.16,0,0,1,430.08,326.86Zm17.09,0a1.16,1.16,0,0,1-1.17-1.13l-1.17-36a1.19,1.19,0,0,1,1.13-1.22,1.26,1.26,0,0,1,1.22,1.14l1.16,36a1.17,1.17,0,0,1-1.13,1.21ZM446,288.26a1.18,1.18,0,0,1-1.17-1.15l-.24-12.63a1.19,1.19,0,0,1,1.15-1.2h0a1.17,1.17,0,0,1,1.17,1.15l.25,12.64a1.18,1.18,0,0,1-1.15,1.19Zm-14.51,0h0a1.18,1.18,0,0,1-1.15-1.19l.24-12.64a1.17,1.17,0,0,1,1.17-1.15h0a1.18,1.18,0,0,1,1.15,1.2l-.23,12.63A1.18,1.18,0,0,1,431.49,288.26Z"/><path class="cls-1" d="M431.72,273.05a1.17,1.17,0,0,1-1.11-.8c-.77-2.31-.66-6.89,4.59-9.38a1.17,1.17,0,1,1,1,2.12c-4.65,2.2-3.52,6.09-3.37,6.52a1.16,1.16,0,0,1-.74,1.48A1.19,1.19,0,0,1,431.72,273.05Z"/><path class="cls-1" d="M435.46,265.1a1.17,1.17,0,0,1-.46-2.25,9.93,9.93,0,0,0,2.68-1.85,1.17,1.17,0,0,1,1.65,1.65,11.87,11.87,0,0,1-3.41,2.35A1.09,1.09,0,0,1,435.46,265.1Z"/><path class="cls-1" d="M441.79,265.1a1.06,1.06,0,0,1-.52-.13,17.64,17.64,0,0,1-3.59-2.32,1.17,1.17,0,0,1,1.65-1.65,15.94,15.94,0,0,0,3,1.88,1.17,1.17,0,0,1-.52,2.22Z"/><path class="cls-1" d="M441.31,265.1a1.18,1.18,0,0,1-.62-.19c-2-1.27-4.69,0-4.71.07a1.18,1.18,0,0,1-1.56-.54,1.15,1.15,0,0,1,.52-1.56c.16-.08,3.93-1.92,7,.06a1.17,1.17,0,0,1-.63,2.16Z"/><path class="cls-1" d="M445.76,273.05a.72.72,0,0,1-.25,0,1.16,1.16,0,0,1-.89-1.39c1-4.39-3.39-6.56-3.57-6.65a1.17,1.17,0,0,1,1-2.11c2.15,1,5.93,4.29,4.84,9.26A1.16,1.16,0,0,1,445.76,273.05Z"/><path class="cls-1" d="M438.5,261.12a1.39,1.39,0,0,1-1.4-1.41,1.18,1.18,0,0,1,1.17-1.17c.64,0,1.65.53,1.65,1.17A1.3,1.3,0,0,1,438.5,261.12Zm.24-1.41h.7a1,1,0,0,0-.88-.93l0,.93Zm-.24,0h0l.05-.93h0Z"/><path class="cls-1" d="M438.5,262.05a1.39,1.39,0,0,1-1.4-1.4,1.3,1.3,0,0,1,1.4-1.41c1.57,0,1.65,1.18,1.65,1.41a1.18,1.18,0,0,1-.35.83A1.93,1.93,0,0,1,438.5,262.05Zm-.69-1.4a1,1,0,0,0,.79.94,1.1,1.1,0,0,0,.84-1,1,1,0,0,0-.94-.88.59.59,0,0,0-.35.11l.83.83Z"/><path class="cls-1" d="M438.5,262.76a1.3,1.3,0,0,1-1.4-1.41,1.4,1.4,0,0,1,1.4-1.41,1.89,1.89,0,0,1,1.3.58,1.18,1.18,0,0,1,.35.83A1.44,1.44,0,0,1,438.5,262.76Zm.43-1.36-.78.78a.59.59,0,0,0,.35.11,1,1,0,0,0,.94-.93Zm-.43,0v0Zm0,0v.17l0-.17Zm0-.07h0l.08-.93h-.1Zm0,0h0v-.92l0,0Zm-.05-.9a1,1,0,0,0-.64.9h.48Z"/><path class="cls-1" d="M438.5,260.65a1.18,1.18,0,0,1-1.17-1.17v-.7a1.18,1.18,0,0,1,2.35,0v.7A1.18,1.18,0,0,1,438.5,260.65Z"/><path class="cls-1" d="M447.87,274.23H429.38a1.18,1.18,0,1,1,0-2.35h18.49a1.18,1.18,0,1,1,0,2.35Z"/><path class="cls-1" d="M449.28,289.43h-20.6a1.17,1.17,0,1,1,0-2.34h20.6a1.17,1.17,0,0,1,0,2.34Z"/><path class="cls-1" d="M450.92,328.27H426.56a1.17,1.17,0,0,1,0-2.34h24.36a1.17,1.17,0,0,1,0,2.34Z"/><path class="cls-1" d="M451.62,366.41H424.23a1.18,1.18,0,0,1,0-2.35h27.39a1.18,1.18,0,0,1,0,2.35Z"/><path class="cls-1" d="M712.66,404.08h0a1.19,1.19,0,0,1-1.15-1.2l.93-44.92a1.19,1.19,0,0,1,1.17-1.15h0a1.2,1.2,0,0,1,1.15,1.2l-.94,44.92A1.17,1.17,0,0,1,712.66,404.08Zm26.46,0A1.18,1.18,0,0,1,738,403L736.54,358a1.19,1.19,0,0,1,1.13-1.22h0a1.19,1.19,0,0,1,1.18,1.14l1.4,44.92a1.17,1.17,0,0,1-1.13,1.21Zm-25.29-48.66h0a1.19,1.19,0,0,1-1.15-1.2l.93-43.53a1.12,1.12,0,0,1,1.2-1.14,1.17,1.17,0,0,1,1.15,1.19L715,354.27A1.18,1.18,0,0,1,713.83,355.42Zm23.65,0a1.17,1.17,0,0,1-1.17-1.14l-1.41-43.52a1.18,1.18,0,0,1,1.13-1.21,1.28,1.28,0,0,1,1.22,1.13l1.4,43.52a1.19,1.19,0,0,1-1.13,1.22ZM715,308.62h0a1.17,1.17,0,0,1-1.14-1.21L715,263a1.17,1.17,0,0,1,1.17-1.14h0a1.17,1.17,0,0,1,1.14,1.21l-1.17,44.45A1.17,1.17,0,0,1,715,308.62Zm20.84,0a1.18,1.18,0,0,1-1.17-1.14L733,263a1.19,1.19,0,0,1,1.14-1.22h0a1.19,1.19,0,0,1,1.17,1.14L737,307.4a1.17,1.17,0,0,1-1.13,1.22Zm-19.67-47.5h0a1.17,1.17,0,0,1-1.14-1.2l.46-15.68a1.15,1.15,0,0,1,1.21-1.14,1.17,1.17,0,0,1,1.14,1.2L717.34,260A1.17,1.17,0,0,1,716.17,261.12Zm18,0A1.17,1.17,0,0,1,733,260l-.23-15.68A1.17,1.17,0,0,1,734,243.1h0a1.17,1.17,0,0,1,1.18,1.15l.23,15.69a1.17,1.17,0,0,1-1.16,1.18Z"/><path class="cls-1" d="M735.09,241.31a.88.88,0,0,0-.05.15,1.19,1.19,0,0,1-1.08.71,1.25,1.25,0,0,1-.32,0,1.12,1.12,0,0,1-.74-.66,1.07,1.07,0,0,1-.06-.79c.06-.22,1.49-5.44-4.33-8.47a1.19,1.19,0,0,1-.23-.16l0,0a1.17,1.17,0,0,1-.22-1.37,1.19,1.19,0,0,1,1.58-.5c.22.12.43.23.64.36h0C735.6,233.64,735.84,238.73,735.09,241.31Z"/><path class="cls-1" d="M729.28,232.34a1.19,1.19,0,0,1-.37-.06,10.88,10.88,0,0,1-4.25-2.91,1.17,1.17,0,0,1,.11-1.66,1.19,1.19,0,0,1,1.65.12,8.58,8.58,0,0,0,3.23,2.23,1.17,1.17,0,0,1-.37,2.28Z"/><path class="cls-1" d="M721.56,232.34a1.21,1.21,0,0,1-1-.61,1.18,1.18,0,0,1,.47-1.59,33,33,0,0,0,3.79-2.44,1.17,1.17,0,1,1,1.5,1.8,33.36,33.36,0,0,1-4.17,2.7A1.25,1.25,0,0,1,721.56,232.34Z"/><path class="cls-1" d="M730.44,231.34a.77.77,0,0,1-.05.19.19.19,0,0,1,0,.07l0,0a.93.93,0,0,1-.05.1l-.06.1,0,.06-.1.1a.53.53,0,0,1-.14.12.41.41,0,0,1-.11.07l-.1.05-.13,0-.15,0-.18,0-.18,0-.18,0-.11,0-.1,0-.15-.06h0l-.25-.09c-1.1-.38-3.67-1.08-5.57-.14h0a.67.67,0,0,0-.12.06l-.19.08a1.15,1.15,0,0,1-1.4-.55,1.19,1.19,0,0,1,.12-1.28h0a1.31,1.31,0,0,1,.36-.3,7,7,0,0,1,2.76-.78l.27,0a11,11,0,0,1,2,.1h0a13.17,13.17,0,0,1,2.94.77l.28.11a0,0,0,0,1,0,0,.34.34,0,0,1,.12.06.28.28,0,0,1,.11.08.69.69,0,0,1,.13.11.74.74,0,0,1,.12.13h0A1.18,1.18,0,0,1,730.44,231.34Z"/><path class="cls-1" d="M722.74,231.85l0,.05h0a1.15,1.15,0,0,1-.38.31c-.24.12-5.73,3-4.54,8.54a1.14,1.14,0,0,1-.07.71,1.18,1.18,0,0,1-.83.68,1.05,1.05,0,0,1-.24,0,1.19,1.19,0,0,1-1.08-.71.94.94,0,0,1-.07-.22c-1.15-5.4,2.53-9.18,5.11-10.75h0l.5-.28h0l.16-.09a1.16,1.16,0,0,1,1.56.53A1.13,1.13,0,0,1,722.74,231.85Z"/><path class="cls-1" d="M725.54,227.43a1.3,1.3,0,0,1-1.41-1.41,1.41,1.41,0,0,1,2.82,0A1.3,1.3,0,0,1,725.54,227.43Zm-.94-1.35c0,1,1.86,1.07,1.87,0l-.85,0v.17h-.09v-.15h0v.15Z"/><path class="cls-1" d="M725.54,228.37c-1.56,0-1.64-1.18-1.64-1.41s0-1.41,1.64-1.41a1.43,1.43,0,1,1,0,2.82Zm-.1-2.3a1,1,0,0,0-.61.89,1,1,0,0,0,.8.93,1,1,0,0,0,.61-.93,1,1,0,0,0-.61-.89v0l-.1,0h0l-.1,0Z"/><path class="cls-1" d="M725.54,229.53A2.11,2.11,0,0,1,724,229a1.16,1.16,0,0,1-.35-.83,1.72,1.72,0,0,1,1.88-1.63,1.67,1.67,0,0,1,1.64,1.63,1.16,1.16,0,0,1-.35.83A1.88,1.88,0,0,1,725.54,229.53Zm-.71-1.41a.68.68,0,0,0,.71.71.72.72,0,0,0,.47-.71Zm.71-.94a.59.59,0,0,0-.36.12l.24.24.24-.24Z"/><path class="cls-1" d="M725.54,227a1.18,1.18,0,0,1-1.17-1.17v-.94a1.17,1.17,0,1,1,2.34,0v.94A1.18,1.18,0,0,1,725.54,227Z"/><path class="cls-1" d="M638.21,291.77a1.15,1.15,0,0,1-.62-.18,1.19,1.19,0,0,1-.38-1.61c6.88-11-.73-16-7.46-20.49-2.92-1.94-5.23-3.47-6-5.37a1.19,1.19,0,0,1,.67-1.52,1.21,1.21,0,0,1,1.52.67c.47,1.21,2.71,2.69,5.09,4.27,6.46,4.28,16.23,10.76,8.16,23.68A1.22,1.22,0,0,1,638.21,291.77Z"/><path class="cls-1" d="M611.52,291.77a1.19,1.19,0,0,1-1-.55c-8.08-12.92,1.69-19.39,8.15-23.68,2.38-1.58,4.62-3.06,5.09-4.27a1.17,1.17,0,1,1,2.19.85c-.75,1.9-3.06,3.43-6,5.37-6.72,4.46-14.34,9.5-7.46,20.49a1.18,1.18,0,0,1-.38,1.61A1.15,1.15,0,0,1,611.52,291.77Z"/><path class="cls-1" d="M642.66,292.24l-.16,0a134.2,134.2,0,0,0-34.82,0,1.25,1.25,0,0,1-1.31-1,1.18,1.18,0,0,1,1-1.3,136.56,136.56,0,0,1,35.42,0,1.17,1.17,0,0,1-.16,2.33Z"/><path class="cls-1" d="M615.92,272.39l-1.3-1.94a17.93,17.93,0,0,1,19.47-.77L633,271.74C626.84,268.39,621,269,615.92,272.39Z"/><path class="cls-1" d="M624.87,264.87a1.18,1.18,0,0,1-1.18-1.18v-3.51a1.18,1.18,0,0,1,2.35,0v3.51A1.18,1.18,0,0,1,624.87,264.87Z"/><path class="cls-1" d="M641.25,312.12a1.18,1.18,0,0,1-1.17-1.17V291.06a1.17,1.17,0,1,1,2.34,0V311A1.18,1.18,0,0,1,641.25,312.12Z"/><path class="cls-1" d="M653,314.24h-.13l-19-2.11-28.43.24h0a1.17,1.17,0,1,1,0-2.34l28.56-.24,19.1,2.12a1.16,1.16,0,0,1,1,1.29A1.18,1.18,0,0,1,653,314.24Z"/><path class="cls-1" d="M654.12,321.38a1.16,1.16,0,0,1-1.16,1h-.13l-.81-.09-18.15-2-27.26.24h-1.18a1.18,1.18,0,0,1,0-2.35h1.18L634,318l18,2,1.07.12A1.17,1.17,0,0,1,654.12,321.38Z"/><path class="cls-1" d="M654.37,313.3V402a1.19,1.19,0,0,1-1.18,1.17,1.16,1.16,0,0,1-1.07-.71,1,1,0,0,1-.1-.46V313.3a1.18,1.18,0,0,1,1.17-1.18,1.2,1.2,0,0,1,1.18,1.18Z"/><path class="cls-1" d="M643.83,340.67l-.23,20.12v.49a1.18,1.18,0,0,1-1.18,1.16h0a1.19,1.19,0,0,1-1.16-1.19v-.46l.23-20.14c0-6.16-8.64-9.67-10.78-10.44-.16-.07-.29-.1-.37-.13a1.17,1.17,0,0,1-.73-1.49,1.13,1.13,0,0,1,.69-.71l.1,0,.13,0h.38l.19.05C633.21,328.58,643.83,332.56,643.83,340.67Z"/><path class="cls-1" d="M631,330.09l-.33.12c-1.83.61-10.76,4-10.76,10.46v20.59a1.17,1.17,0,1,1-2.34,0V340.67c0-8.6,11.5-12.42,12.69-12.79l.1,0,.13,0h.38a1.19,1.19,0,0,1,.93.84A1.16,1.16,0,0,1,631,330.09Z"/><path class="cls-1" d="M652,322.33v38.46H643.6l.23-20.12c0-8.11-10.62-12.09-12.73-12.81l-.19-.05h-.38l-.13,0-.1,0c-1.19.37-12.69,4.19-12.69,12.79v20.12H607.3a1.17,1.17,0,0,0-.69.23V320.55l27.26-.24Z"/><path class="cls-1" d="M654.37,362a1.19,1.19,0,0,1-1.18,1.17H607.3a1.17,1.17,0,0,1,0-2.34h45.89A1.19,1.19,0,0,1,654.37,362Z"/><path class="cls-1" d="M642.42,401.5h0a1.18,1.18,0,0,1-1.16-1.19l.24-18.71c0-5.4-7.7-8.5-11-9.6l.61-2.25c4.83,1.58,12.74,5.18,12.74,11.86l-.23,18.74A1.17,1.17,0,0,1,642.42,401.5Z"/><path class="cls-1" d="M618.78,401.5a1.18,1.18,0,0,1-1.17-1.17V381.61c0-8,11.48-11.51,12.79-11.88a1.15,1.15,0,0,1,1.44.8A1.17,1.17,0,0,1,631,372c-.46.13-11.09,3.23-11.09,9.63v18.72A1.18,1.18,0,0,1,618.78,401.5Z"/><path class="cls-1" d="M732.9,241.46H717.71a1.14,1.14,0,0,0,.07-.71c-1.19-5.57,4.3-8.42,4.54-8.54a1.15,1.15,0,0,0,.38-.31h0c1.9-.94,4.47-.24,5.57.14a1.19,1.19,0,0,0,.23.16c5.82,3,4.39,8.25,4.33,8.47A1.07,1.07,0,0,0,732.9,241.46Z"/><path class="cls-1" d="M738,242.63a1.18,1.18,0,0,1-1.18,1.18h-22.7a1.18,1.18,0,0,1,0-2.35h22.7A1.18,1.18,0,0,1,738,242.63Z"/><path class="cls-1" d="M737.71,262.52H712.19a1.17,1.17,0,1,1,0-2.34h25.52a1.17,1.17,0,1,1,0,2.34Z"/><path class="cls-1" d="M740.29,310.49h-30.2a1.18,1.18,0,1,1,0-2.35h30.2a1.18,1.18,0,0,1,0,2.35Z"/><path class="cls-1" d="M743.09,357.52H709.15a1.17,1.17,0,1,1,0-2.34h33.94a1.17,1.17,0,0,1,0,2.34Z"/><path class="cls-1" d="M671.46,404.08h0a1.17,1.17,0,0,1-1.14-1.2l.93-36.27a1.16,1.16,0,0,1,1.17-1.14h0a1.17,1.17,0,0,1,1.14,1.2l-.93,36.27A1.18,1.18,0,0,1,671.46,404.08Zm21.53,0a1.18,1.18,0,0,1-1.17-1.13l-1.17-36.27a1.18,1.18,0,0,1,1.14-1.21h0A1.18,1.18,0,0,1,693,366.6l1.16,36.27a1.17,1.17,0,0,1-1.13,1.21Zm-1.16-39.31a1.19,1.19,0,0,1-1.18-1.13l-1.17-35.33a1.18,1.18,0,0,1,1.13-1.21,1.15,1.15,0,0,1,1.22,1.13L693,363.56a1.17,1.17,0,0,1-1.13,1.21Zm-19.2,0h0a1.18,1.18,0,0,1-1.15-1.2l.7-35.32a1.17,1.17,0,0,1,1.17-1.15h0a1.17,1.17,0,0,1,1.15,1.19l-.7,35.33A1.17,1.17,0,0,1,672.63,364.77Zm17.79-37.91a1.17,1.17,0,0,1-1.17-1.12l-1.41-36a1.18,1.18,0,0,1,2.35-.09l1.4,36a1.17,1.17,0,0,1-1.12,1.22Zm-16.86,0h0a1.17,1.17,0,0,1-1.14-1.2l.94-36a1.17,1.17,0,0,1,1.17-1.14h0a1.17,1.17,0,0,1,1.14,1.21l-.94,36A1.16,1.16,0,0,1,673.56,326.86Zm.94-38.6h0a1.17,1.17,0,0,1-1.13-1.21l.46-12.64a1.19,1.19,0,0,1,1.18-1.13h0a1.17,1.17,0,0,1,1.13,1.21l-.47,12.64A1.17,1.17,0,0,1,674.5,288.26Zm14.52,0a1.18,1.18,0,0,1-1.18-1.15l-.23-12.63a1.19,1.19,0,0,1,1.15-1.2h0a1.18,1.18,0,0,1,1.18,1.15l.23,12.64a1.17,1.17,0,0,1-1.15,1.19Z"/><path class="cls-1" d="M689,273.05h-.2a1.18,1.18,0,0,1-1-1.35,5.8,5.8,0,0,0-3.35-6.72,1.17,1.17,0,0,1,1-2.09,8.13,8.13,0,0,1,4.61,9.2A1.16,1.16,0,0,1,689,273.05Z"/><path class="cls-1" d="M685,265.1a1,1,0,0,1-.45-.1,11.85,11.85,0,0,1-3.42-2.35,1.18,1.18,0,0,1,0-1.65,1.19,1.19,0,0,1,1.66,0,10,10,0,0,0,2.67,1.85,1.17,1.17,0,0,1-.46,2.25Z"/><path class="cls-1" d="M678.72,265.1a1.17,1.17,0,0,1-.53-2.22,15.53,15.53,0,0,0,3-1.88,1.17,1.17,0,0,1,1.66,0,1.16,1.16,0,0,1,0,1.65,18.22,18.22,0,0,1-3.58,2.32A1.11,1.11,0,0,1,678.72,265.1Z"/><path class="cls-1" d="M679.18,265.1a1.17,1.17,0,0,1-.62-2.16c3.1-2,6.84-.14,7-.06a1.17,1.17,0,0,1-1,2.1s-2.74-1.33-4.7-.07A1.19,1.19,0,0,1,679.18,265.1Z"/><path class="cls-1" d="M674.73,273.05a1.17,1.17,0,0,1-1.15-1c-.86-4.93,2.79-8.18,4.85-9.2a1.15,1.15,0,0,1,1.56.52,1.17,1.17,0,0,1-.51,1.57c-.19.09-4.37,2.28-3.59,6.71a1.19,1.19,0,0,1-1,1.36Z"/><path class="cls-1" d="M682,261.12a1.39,1.39,0,0,1-1.4-1.41,1.18,1.18,0,0,1,1.17-1.17c.64,0,1.64.53,1.64,1.17A1.3,1.3,0,0,1,682,261.12Zm.23-1.41h.71a1,1,0,0,0-.88-.93l0,.93Zm-.23,0h0l0-.93h0Z"/><path class="cls-1" d="M682,262.05a1.39,1.39,0,0,1-1.4-1.4,1.41,1.41,0,1,1,2.81,0A1.39,1.39,0,0,1,682,262.05Zm0-2.34a1,1,0,0,0-.94.92l.88,0,0-.17,1,.17A1,1,0,0,0,682,259.71Z"/><path class="cls-1" d="M682,262.76a1.44,1.44,0,0,1-1.64-1.41,1.18,1.18,0,0,1,.35-.83,1.93,1.93,0,0,1,1.29-.58,1.88,1.88,0,0,1,1.29.58,1.18,1.18,0,0,1,.35.83A1.44,1.44,0,0,1,682,262.76Zm0-.95-.36.37a.51.51,0,0,0,.72,0Zm.47-.46h.24a1,1,0,0,0-.62-.89v0h-.18v0a1,1,0,0,0-.61.89Z"/><path class="cls-1" d="M682,260.65a1.18,1.18,0,0,1-1.17-1.17v-.7a1.17,1.17,0,0,1,2.34,0v.7A1.18,1.18,0,0,1,682,260.65Z"/><path class="cls-1" d="M691.12,274.23H672.86a1.18,1.18,0,0,1,0-2.35h18.26a1.18,1.18,0,0,1,0,2.35Z"/><path class="cls-1" d="M692.06,289.43H671.22a1.17,1.17,0,0,1,0-2.34h20.84a1.17,1.17,0,1,1,0,2.34Z"/><path class="cls-1" d="M693.93,328.27H669.59a1.17,1.17,0,1,1,0-2.34h24.34a1.17,1.17,0,1,1,0,2.34Z"/><path class="cls-1" d="M696.28,366.41h-27.4a1.18,1.18,0,0,1,0-2.35h27.4a1.18,1.18,0,0,1,0,2.35Z"/><path class="cls-1" d="M771.43,404.78H356.57a1.18,1.18,0,0,1,0-2.35H771.43a1.18,1.18,0,0,1,0,2.35Z"/><path class="cls-1" d="M1279,185.56a1,1,0,0,0-.24,0H1152.34a1.18,1.18,0,0,0-1.17,1.17v28.55a1.18,1.18,0,0,0,1.17,1.17h126.42a1.17,1.17,0,0,0,.94-.47h0a1.16,1.16,0,0,0,.24-.7V186.71A1.19,1.19,0,0,0,1279,185.56Zm-125.49,28.53V187.88h124.08v26.21Z"/><path class="cls-1" d="M1279.7,214.56h0a1.17,1.17,0,0,0-.94-.47H1134.07a1.18,1.18,0,0,0-1.07.71,1.16,1.16,0,0,0,.22,1.26l11.47,12.4a1.19,1.19,0,0,0,.86.37h133.21a1.19,1.19,0,0,0,1.18-1.17v-12.4A1.16,1.16,0,0,0,1279.7,214.56Zm-133.64,11.93-9.31-10.06h140.84v10.06Z"/><polygon class="cls-1" points="1277.59 216.43 1277.59 226.49 1146.06 226.49 1136.75 216.43 1277.59 216.43"/><path class="cls-1" d="M1278.76,398.7a1.18,1.18,0,0,1-1.17-1.17V246.62H1153.51V397.53a1.17,1.17,0,1,1-2.34,0V245.44a1.18,1.18,0,0,1,1.17-1.17h126.42a1.18,1.18,0,0,1,1.18,1.17V397.53A1.18,1.18,0,0,1,1278.76,398.7Z"/><path class="cls-1" d="M1333.31,214.32a1.18,1.18,0,0,1-1.17-1.17V186.71a1.17,1.17,0,1,1,2.34,0v26.44A1.18,1.18,0,0,1,1333.31,214.32Z"/><path class="cls-1" d="M1348.06,187.18v26.44a1,1,0,0,1-.1.47,1.16,1.16,0,0,1-2.14,0,1,1,0,0,1-.1-.47V187.18a1.17,1.17,0,0,1,2.34,0Z"/><path class="cls-1" d="M1180.67,244.27a1.18,1.18,0,0,1-1.18-1.17V230a1.18,1.18,0,1,1,2.35,0v13.1A1.18,1.18,0,0,1,1180.67,244.27Z"/><path class="cls-1" d="M1194.24,244.51a1.18,1.18,0,0,1-1.17-1.17v-13.1a1.17,1.17,0,1,1,2.34,0v13.1A1.18,1.18,0,0,1,1194.24,244.51Z"/><path class="cls-1" d="M1440.53,243.8a5.39,5.39,0,0,1-5.38-5.37,5.44,5.44,0,0,1,5.38-5.62,5.5,5.5,0,1,1,0,11Zm0-8.65a3.09,3.09,0,0,0-3,3.28,3,3,0,0,0,3,3,3.24,3.24,0,0,0,3.28-3A3.28,3.28,0,0,0,1440.53,235.15Z"/><path class="cls-1" d="M1208.76,243.11a1.18,1.18,0,0,1-1.17-1.18v-13.1a1.17,1.17,0,0,1,2.34,0v13.1A1.18,1.18,0,0,1,1208.76,243.11Z"/><path class="cls-1" d="M1222.34,243.34a1.18,1.18,0,0,1-1.18-1.17V229.06a1.18,1.18,0,0,1,2.35,0v13.11A1.18,1.18,0,0,1,1222.34,243.34Z"/><path class="cls-1" d="M1235.91,243.57a1.18,1.18,0,0,1-1.17-1.17V229.3a1.17,1.17,0,1,1,2.34,0v13.1A1.17,1.17,0,0,1,1235.91,243.57Z"/><path class="cls-1" d="M1249.5,243.8a1.17,1.17,0,0,1-1.17-1.17v-13.1a1.17,1.17,0,0,1,2.34,0v13.1A1.17,1.17,0,0,1,1249.5,243.8Z"/><path class="cls-1" d="M1264.25,243.8a1.17,1.17,0,0,1-1.18-1.17v-13.1a1.18,1.18,0,0,1,2.35,0v13.1A1.17,1.17,0,0,1,1264.25,243.8Z"/><path class="cls-1" d="M1278.76,187.88H1152.34a1.18,1.18,0,0,1-1.17-1.17V175.25a1.18,1.18,0,0,1,1.17-1.18h126.42a1.18,1.18,0,0,1,1.18,1.18v11.46A1.18,1.18,0,0,1,1278.76,187.88Zm-125.25-2.34h124.08v-9.12H1153.51Z"/><path class="cls-1" d="M1249,398.7a1.18,1.18,0,0,1-1.17-1.17V258.08H1180.9V397.53a1.18,1.18,0,0,1-2.35,0V256.91a1.18,1.18,0,0,1,1.18-1.17H1249a1.18,1.18,0,0,1,1.18,1.17V397.53A1.18,1.18,0,0,1,1249,398.7Z"/><path class="cls-1" d="M1442.41,398.7a1.18,1.18,0,0,1-1.17-1.17V304.87c0-36.9-21.54-66.91-48-66.91s-48,30-48,66.91v92.66a1.17,1.17,0,1,1-2.34,0V304.87c0-38.18,22.57-69.25,50.33-69.25s50.34,31.07,50.34,69.25v92.66A1.18,1.18,0,0,1,1442.41,398.7Z"/><path class="cls-1" d="M1342.44,243.8a5.39,5.39,0,0,1-5.39-5.37,5.45,5.45,0,0,1,5.39-5.62,5.5,5.5,0,1,1,0,11Zm0-8.65a3.09,3.09,0,0,0-3,3.28,3,3,0,0,0,3,3,3.24,3.24,0,0,0,3.28-3A3.28,3.28,0,0,0,1342.44,235.15Z"/><path class="cls-1" d="M1286.49,176.65h0l-12.64-.23a1.18,1.18,0,0,1,0-2.35h0l12.64.24a1.17,1.17,0,0,1,0,2.34Zm219.6,0h-9.36a1.17,1.17,0,1,1,0-2.34h9.36a1.17,1.17,0,1,1,0,2.34Zm-38.16,0H1315.52a1.17,1.17,0,0,1,0-2.34h152.41a1.17,1.17,0,1,1,0,2.34Z"/><path class="cls-1" d="M1505.62,215.26a1.18,1.18,0,0,1-1.17,1.17H1280.63a1.19,1.19,0,0,1-.69-.23,1.36,1.36,0,0,1-.24-.24h0a1.14,1.14,0,0,1-.24-.7,1.16,1.16,0,0,1,.24-.7h0a1.36,1.36,0,0,1,.24-.24,1.19,1.19,0,0,1,.69-.23h223.82A1.18,1.18,0,0,1,1505.62,215.26Z"/><path class="cls-1" d="M1369.84,186.71v26.44a1.18,1.18,0,0,1-.48.94,1.17,1.17,0,0,1-1.39,0,1.18,1.18,0,0,1-.48-.94V186.71a1.18,1.18,0,0,1,2.35,0Z"/><path class="cls-1" d="M1382.24,214.8a1.18,1.18,0,0,1-1.17-1.18V187.18a1.17,1.17,0,0,1,2.34,0v26.44A1.18,1.18,0,0,1,1382.24,214.8Z"/><path class="cls-1" d="M1403.78,214.32a1.18,1.18,0,0,1-1.18-1.17V186.71a1.18,1.18,0,0,1,2.35,0v26.44A1.18,1.18,0,0,1,1403.78,214.32Z"/><path class="cls-1" d="M1418.53,187.18v26.44a1,1,0,0,1-.1.47,1.16,1.16,0,0,1-2.14,0,1,1,0,0,1-.1-.47V187.18a1.17,1.17,0,1,1,2.34,0Z"/><path class="cls-1" d="M1440.31,186.71v26.44a1.18,1.18,0,0,1-.48.94,1.2,1.2,0,0,1-.7.23,1.17,1.17,0,0,1-1.16-1.17V186.71a1.17,1.17,0,1,1,2.34,0Z"/><path class="cls-1" d="M1452.71,214.8a1.18,1.18,0,0,1-1.17-1.18V187.18a1.17,1.17,0,0,1,2.34,0v26.44A1.18,1.18,0,0,1,1452.71,214.8Z"/><path class="cls-1" d="M1497.66,121a1.16,1.16,0,0,1-1.16,1.16H1286.72a1.17,1.17,0,1,1,0-2.33H1496.5A1.16,1.16,0,0,1,1497.66,121Z"/><path class="cls-1" d="M1327.69,398.7a1.18,1.18,0,0,1-1.17-1.17V222.05a1.17,1.17,0,1,1,2.34,0V397.53A1.18,1.18,0,0,1,1327.69,398.7Z"/><path class="cls-1" d="M1467,102.25H1317.62a1.17,1.17,0,0,1,0-2.34H1467a1.17,1.17,0,1,1,0,2.34Z"/><path class="cls-1" d="M1315.28,186.48a1.18,1.18,0,0,1-1.17-1.17V77.91c0-13.44-6-24.8-13.11-24.8s-13.11,11.13-13.11,24.8v107.4a1.17,1.17,0,0,1-2.34,0V77.91c0-15.22,6.79-27.13,15.45-27.13s15.45,12.17,15.45,27.13v107.4A1.18,1.18,0,0,1,1315.28,186.48Z"/><path class="cls-1" d="M1314.58,77H1287a1.17,1.17,0,1,1,0-2.33h27.63a1.17,1.17,0,1,1,0,2.33Z"/><path class="cls-1" d="M1300.53,51.94a1.17,1.17,0,0,1-1.17-1.17v-8a1.17,1.17,0,0,1,2.34,0v8A1.17,1.17,0,0,1,1300.53,51.94Z"/><path class="cls-1" d="M1278.76,247.78a1.18,1.18,0,0,1-1.17-1.17V226.49a1.18,1.18,0,1,1,2.35,0v20.12A1.18,1.18,0,0,1,1278.76,247.78Z"/><path class="cls-1" d="M1504,223H1280.16a1.18,1.18,0,0,1,0-2.35H1504a1.18,1.18,0,0,1,0,2.35Z"/><path class="cls-1" d="M1368,214.09h-20a1,1,0,0,0,.1-.47V187.88h19.43v25.27A1.18,1.18,0,0,0,1368,214.09Z"/><path class="cls-1" d="M1438.44,214.09h-20a1,1,0,0,0,.1-.47V187.88H1438v25.27A1.17,1.17,0,0,0,1438.44,214.09Z"/><path class="cls-1" d="M1504.22,186.71a1.17,1.17,0,0,1-.47.93,1.19,1.19,0,0,1-.47.22.86.86,0,0,1-.23,0H1279.23a.86.86,0,0,1-.23,0,1.17,1.17,0,0,1,0-2.3.86.86,0,0,1,.23,0h223.82a.86.86,0,0,1,.23,0,1.19,1.19,0,0,1,.47.22A1.17,1.17,0,0,1,1504.22,186.71Z"/><path class="cls-1" d="M1327.69,243.34h-47.53a1.18,1.18,0,0,1,0-2.35h47.53a1.18,1.18,0,0,1,0,2.35Z"/><path class="cls-1" d="M1327.69,371.09h-47.53a1.18,1.18,0,0,1,0-2.35h47.53a1.18,1.18,0,0,1,0,2.35Z"/><path class="cls-1" d="M1457.16,398.7a1.18,1.18,0,0,1-1.17-1.17V221.81a1.17,1.17,0,0,1,2.34,0V397.53A1.18,1.18,0,0,1,1457.16,398.7Z"/><path class="cls-1" d="M1504.92,245.44h-47.53a1.17,1.17,0,0,1,0-2.34h47.53a1.17,1.17,0,1,1,0,2.34Z"/><path class="cls-1" d="M1504.92,373.19h-47.53a1.17,1.17,0,0,1,0-2.34h47.53a1.17,1.17,0,0,1,0,2.34Z"/><path class="cls-1" d="M1152.57,244.51a1.18,1.18,0,0,1-1.17-1.17v-13.1a1.17,1.17,0,1,1,2.34,0v13.1A1.18,1.18,0,0,1,1152.57,244.51Z"/><path class="cls-1" d="M1166.15,244.74a1.18,1.18,0,0,1-1.17-1.17v-13.1a1.17,1.17,0,0,1,2.34,0v13.1A1.18,1.18,0,0,1,1166.15,244.74Z"/><path class="cls-1" d="M1236.85,398.7a1.18,1.18,0,0,1-1.17-1.17v-97.8c0-16.13-9.55-29.25-21.3-29.25s-21.54,13.12-21.54,29.25v97.8a1.18,1.18,0,0,1-2.35,0v-97.8c0-17.43,10.72-31.6,23.89-31.6S1238,282.3,1238,299.73v97.8A1.18,1.18,0,0,1,1236.85,398.7Z"/><path class="cls-1" d="M1306.15,92.66V119.8h-10.53V92.66c0-4,2.51-7.49,5.38-7.49S1306.15,88.6,1306.15,92.66Z"/><path class="cls-1" d="M1308.5,92.66V120a1.18,1.18,0,0,1-2.35,0V92.66c0-4.06-2.35-7.49-5.15-7.49s-5.38,3.49-5.38,7.49V120a1.18,1.18,0,0,1-2.35,0V92.66c0-5.33,3.54-9.83,7.73-9.83S1308.5,87.23,1308.5,92.66Z"/><path class="cls-1" d="M1630.88,185.54H1504.45a1.12,1.12,0,0,0-.7.24,1.14,1.14,0,0,0-.47.93v28.55a1.18,1.18,0,0,0,1.17,1.17h126.43a1.18,1.18,0,0,0,1.17-1.17V186.71A1.18,1.18,0,0,0,1630.88,185.54Zm-125.26,28.55V187.88H1629.7v26.21Z"/><path class="cls-1" d="M1650.21,214.8a1.18,1.18,0,0,0-1.08-.71H1504.45a1.18,1.18,0,0,0-1.17,1.17v12.4a1.18,1.18,0,0,0,1.17,1.17h133.21a1.21,1.21,0,0,0,.86-.37l11.47-12.4A1.18,1.18,0,0,0,1650.21,214.8Zm-13.07,11.69H1505.62V216.43h140.84Z"/><polygon class="cls-1" points="1646.46 216.43 1637.14 226.49 1505.62 226.49 1505.62 216.43 1646.46 216.43"/><path class="cls-1" d="M1630.88,398.7a1.18,1.18,0,0,1-1.18-1.17V246.62H1505.62V397.53a1.17,1.17,0,0,1-2.34,0V245.44a1.18,1.18,0,0,1,1.17-1.17h126.43a1.18,1.18,0,0,1,1.17,1.17V397.53A1.18,1.18,0,0,1,1630.88,398.7Z"/><path class="cls-1" d="M1602.55,244.27a1.18,1.18,0,0,1-1.17-1.17V230a1.17,1.17,0,1,1,2.34,0v13.1A1.18,1.18,0,0,1,1602.55,244.27Z"/><path class="cls-1" d="M1589,244.51a1.18,1.18,0,0,1-1.17-1.17v-13.1a1.18,1.18,0,1,1,2.35,0v13.1A1.18,1.18,0,0,1,1589,244.51Z"/><path class="cls-1" d="M1574.45,243.11a1.18,1.18,0,0,1-1.17-1.18v-13.1a1.17,1.17,0,0,1,2.34,0v13.1A1.18,1.18,0,0,1,1574.45,243.11Z"/><path class="cls-1" d="M1560.87,243.34a1.18,1.18,0,0,1-1.17-1.17V229.06a1.17,1.17,0,1,1,2.34,0v13.11A1.18,1.18,0,0,1,1560.87,243.34Z"/><path class="cls-1" d="M1547.29,243.57a1.18,1.18,0,0,1-1.17-1.17V229.3a1.18,1.18,0,1,1,2.35,0v13.1A1.18,1.18,0,0,1,1547.29,243.57Z"/><path class="cls-1" d="M1533.72,243.8a1.17,1.17,0,0,1-1.18-1.17v-13.1a1.18,1.18,0,0,1,2.35,0v13.1A1.17,1.17,0,0,1,1533.72,243.8Z"/><path class="cls-1" d="M1519,243.8a1.17,1.17,0,0,1-1.17-1.17v-13.1a1.17,1.17,0,0,1,2.34,0v13.1A1.17,1.17,0,0,1,1519,243.8Z"/><path class="cls-1" d="M1630.88,187.88H1504.45a1.18,1.18,0,0,1-1.17-1.17V175.25a1.18,1.18,0,0,1,1.17-1.18h126.43a1.18,1.18,0,0,1,1.17,1.18v11.46A1.18,1.18,0,0,1,1630.88,187.88Zm-125.26-2.34H1629.7v-9.12H1505.62Z"/><path class="cls-1" d="M1601.38,398.7a1.18,1.18,0,0,1-1.18-1.17V258.08h-67V397.53a1.17,1.17,0,1,1-2.34,0V256.91a1.18,1.18,0,0,1,1.17-1.17h69.3a1.18,1.18,0,0,1,1.17,1.17V397.53A1.18,1.18,0,0,1,1601.38,398.7Z"/><path class="cls-1" d="M1504.45,247.78a1.18,1.18,0,0,1-1.17-1.17V226.49a1.17,1.17,0,1,1,2.34,0v20.12A1.18,1.18,0,0,1,1504.45,247.78Z"/><path class="cls-1" d="M1630.64,244.51a1.18,1.18,0,0,1-1.17-1.17v-13.1a1.17,1.17,0,1,1,2.34,0v13.1A1.17,1.17,0,0,1,1630.64,244.51Z"/><path class="cls-1" d="M1617.06,244.74a1.18,1.18,0,0,1-1.17-1.17v-13.1a1.17,1.17,0,1,1,2.34,0v13.1A1.18,1.18,0,0,1,1617.06,244.74Z"/><path class="cls-1" d="M1589.2,398.7a1.18,1.18,0,0,1-1.18-1.17v-97.8c0-16.13-9.55-29.25-21.3-29.25s-21.53,13.12-21.53,29.25v97.8a1.17,1.17,0,0,1-2.34,0v-97.8c0-17.43,10.71-31.6,23.87-31.6s23.65,14.17,23.65,31.6v97.8A1.18,1.18,0,0,1,1589.2,398.7Z"/><path class="cls-1" d="M1496.49,185.78a1.18,1.18,0,0,1-1.17-1.17V77.44c0-13.31-6-24.56-13.11-24.56s-13.11,11-13.11,24.56V184.61a1.18,1.18,0,0,1-2.35,0V77.44c0-15.08,6.8-26.9,15.46-26.9s15.46,12.07,15.46,26.9V184.61A1.18,1.18,0,0,1,1496.49,185.78Z"/><path class="cls-1" d="M1496,76.51h-27.39a1.17,1.17,0,0,1,0-2.34H1496a1.17,1.17,0,1,1,0,2.34Z"/><path class="cls-1" d="M1482.68,51.47a1.17,1.17,0,0,1-1.18-1.16V42.58a1.18,1.18,0,0,1,2.35,0v7.73A1.17,1.17,0,0,1,1482.68,51.47Z"/><path class="cls-1" d="M1487.38,119.8H1476.8a1.94,1.94,0,0,0,0-.24V92.18c0-3.93,2.47-7.25,5.39-7.25s5.15,3.26,5.15,7.25v27.38A1.94,1.94,0,0,0,1487.38,119.8Z"/><path class="cls-1" d="M1489.7,92.18v27.38a1.94,1.94,0,0,1,0,.24,1.18,1.18,0,0,1-2.3,0,1.94,1.94,0,0,1,0-.24V92.18c0-4-2.3-7.25-5.15-7.25s-5.39,3.32-5.39,7.25v27.38a1.94,1.94,0,0,1,0,.24,1.18,1.18,0,0,1-2.3,0,1.94,1.94,0,0,1,0-.24V92.18c0-5.28,3.47-9.58,7.73-9.58S1489.7,86.81,1489.7,92.18Z"/><path class="cls-1" d="M1328.86,121a1.18,1.18,0,0,1-1.17-1.17V101.55a1.18,1.18,0,0,1,2.35,0V119.8A1.18,1.18,0,0,1,1328.86,121Z"/><path class="cls-1" d="M1342.44,121.2a1.17,1.17,0,0,1-1.17-1.17V101.78a1.17,1.17,0,0,1,2.34,0V120A1.17,1.17,0,0,1,1342.44,121.2Z"/><path class="cls-1" d="M1356.73,121.66a1.17,1.17,0,0,1-1.18-1.16V102.25a1.18,1.18,0,0,1,2.35,0V120.5A1.17,1.17,0,0,1,1356.73,121.66Z"/><path class="cls-1" d="M1370.3,121.9a1.17,1.17,0,0,1-1.17-1.17V102.48a1.17,1.17,0,1,1,2.34,0v18.25A1.17,1.17,0,0,1,1370.3,121.9Z"/><path class="cls-1" d="M1384.82,121.43a1.17,1.17,0,0,1-1.17-1.17V102a1.17,1.17,0,1,1,2.34,0v18.25A1.17,1.17,0,0,1,1384.82,121.43Z"/><path class="cls-1" d="M1398.4,121.66a1.17,1.17,0,0,1-1.18-1.16V102.25a1.18,1.18,0,0,1,2.35,0V120.5A1.17,1.17,0,0,1,1398.4,121.66Z"/><path class="cls-1" d="M1412.91,121.43a1.17,1.17,0,0,1-1.17-1.17V102a1.17,1.17,0,0,1,2.34,0v18.25A1.17,1.17,0,0,1,1412.91,121.43Z"/><path class="cls-1" d="M1426.49,121.66a1.17,1.17,0,0,1-1.17-1.16v-18a1.17,1.17,0,0,1,2.34,0v18A1.17,1.17,0,0,1,1426.49,121.66Z"/><path class="cls-1" d="M1440.77,121a1.18,1.18,0,0,1-1.17-1.17V101.55a1.18,1.18,0,0,1,2.35,0V119.8A1.18,1.18,0,0,1,1440.77,121Z"/><path class="cls-1" d="M1454.35,121.43a1.17,1.17,0,0,1-1.17-1.17V102a1.17,1.17,0,1,1,2.34,0v18.25A1.17,1.17,0,0,1,1454.35,121.43Z"/><path class="cls-1" d="M1327.69,323.59h-47.53a1.18,1.18,0,0,1,0-2.35h47.53a1.18,1.18,0,0,1,0,2.35Z"/><path class="cls-1" d="M1504.92,325.7h-47.53a1.17,1.17,0,0,1,0-2.34h47.53a1.17,1.17,0,0,1,0,2.34Z"/><path class="cls-1" d="M1327.69,276.1h-47.53a1.18,1.18,0,0,1,0-2.35h47.53a1.18,1.18,0,0,1,0,2.35Z"/><path class="cls-1" d="M1504.92,278.2h-47.53a1.17,1.17,0,0,1,0-2.34h47.53a1.17,1.17,0,0,1,0,2.34Z"/><path class="cls-1" d="M1587.8,66.68a14.53,14.53,0,0,1-14.52-14.5,14.71,14.71,0,0,1,14.52-14.51,14.54,14.54,0,0,1,14.52,14.51A14.36,14.36,0,0,1,1587.8,66.68Zm0-26.67a12.34,12.34,0,0,0-12.18,12.17,12.18,12.18,0,0,0,12.18,12.16A12,12,0,0,0,1600,52.18,12.18,12.18,0,0,0,1587.8,40Z"/><path class="cls-1" d="M1588.27,33.92a1.17,1.17,0,0,1-1.18-1.17V4.91a1.18,1.18,0,0,1,2.35,0V32.75A1.17,1.17,0,0,1,1588.27,33.92Z"/><path class="cls-1" d="M1594.58,33.92a1.24,1.24,0,0,1-.45-.09,1.17,1.17,0,0,1-.63-1.52l6.09-14.74a1.17,1.17,0,1,1,2.16.89l-6.08,14.74A1.18,1.18,0,0,1,1594.58,33.92Z"/><path class="cls-1" d="M1601.14,40a1.12,1.12,0,0,1-.81-.34,1.16,1.16,0,0,1,0-1.65L1620,18.13a1.17,1.17,0,0,1,1.67,1.65L1602,39.66A1.14,1.14,0,0,1,1601.14,40Z"/><path class="cls-1" d="M1605.59,44.45a1.16,1.16,0,0,1-1.08-.72,1.18,1.18,0,0,1,.63-1.53l14.75-6.08a1.17,1.17,0,1,1,.9,2.16L1606,44.36A1.2,1.2,0,0,1,1605.59,44.45Z"/><path class="cls-1" d="M1606.06,51.24a1.17,1.17,0,0,1-1.17-1,1.19,1.19,0,0,1,1-1.3l27.63-3a1.14,1.14,0,0,1,1.29,1,1.17,1.17,0,0,1-1,1.29l-27.62,3Z"/><path class="cls-1" d="M1622,62a1.29,1.29,0,0,1-.33,0l-15.22-4.45a1.17,1.17,0,1,1,.66-2.25l15.22,4.45A1.17,1.17,0,0,1,1622,62Z"/><path class="cls-1" d="M1626,78.61a1.14,1.14,0,0,1-.64-.19L1601.91,63a1.17,1.17,0,1,1,1.28-1.95l23.41,15.44a1.17,1.17,0,0,1-.65,2.14Z"/><path class="cls-1" d="M1608.16,81.66a1.17,1.17,0,0,1-1-.51L1598.29,68a1.17,1.17,0,0,1,2-1.31l8.89,13.1a1.17,1.17,0,0,1-.31,1.62A1.15,1.15,0,0,1,1608.16,81.66Z"/><path class="cls-1" d="M1600.67,96.86a1.19,1.19,0,0,1-1.12-.81l-8.42-26.44a1.17,1.17,0,0,1,2.23-.71l8.43,26.44a1.18,1.18,0,0,1-.77,1.47A1,1,0,0,1,1600.67,96.86Z"/><path class="cls-1" d="M1585,88h-.1a1.17,1.17,0,0,1-1.06-1.27l1.4-15.68A1.12,1.12,0,0,1,1586.5,70a1.17,1.17,0,0,1,1.06,1.27l-1.41,15.68A1.16,1.16,0,0,1,1585,88Z"/><path class="cls-1" d="M1569.3,95.22a1.14,1.14,0,0,1-.44-.08,1.18,1.18,0,0,1-.64-1.53l10.53-26a1.16,1.16,0,0,1,1.53-.64,1.18,1.18,0,0,1,.64,1.53l-10.53,26A1.17,1.17,0,0,1,1569.3,95.22Z"/><path class="cls-1" d="M1563,78.15a1.16,1.16,0,0,1-.82-.34,1.18,1.18,0,0,1,0-1.65l11-11.23a1.17,1.17,0,0,1,1.67,1.63l-11,11.24A1.18,1.18,0,0,1,1563,78.15Z"/><path class="cls-1" d="M1546.35,73.7a1.2,1.2,0,0,1-1-.62,1.17,1.17,0,0,1,.48-1.58l24.59-13.1a1.17,1.17,0,1,1,1.1,2.06l-24.58,13.1A1.25,1.25,0,0,1,1546.35,73.7Z"/><path class="cls-1" d="M1552.21,56.62a1.17,1.17,0,0,1-.12-2.33l15.69-1.64a1.16,1.16,0,0,1,1.28,1,1.18,1.18,0,0,1-1,1.29l-15.69,1.64Z"/><path class="cls-1" d="M1569.53,48.2l-.22,0-27.39-5.39a1.17,1.17,0,0,1,.45-2.29l27.39,5.38a1.17,1.17,0,0,1-.23,2.32Z"/><path class="cls-1" d="M1570.71,41.88a1.17,1.17,0,0,1-.65-.19L1557,33a1.16,1.16,0,0,1-.33-1.62,1.18,1.18,0,0,1,1.62-.33l13.11,8.66a1.17,1.17,0,0,1,.34,1.62A1.22,1.22,0,0,1,1570.71,41.88Z"/><path class="cls-1" d="M1576.33,37.67a1.18,1.18,0,0,1-.91-.43l-17.56-21.53a1.16,1.16,0,0,1,.17-1.64,1.15,1.15,0,0,1,1.64.17l17.56,21.52a1.18,1.18,0,0,1-.16,1.65A1.24,1.24,0,0,1,1576.33,37.67Z"/><path class="cls-1" d="M1581.24,33.69a1.18,1.18,0,0,1-1.12-.82l-4.68-15.21a1.19,1.19,0,0,1,.77-1.47,1.2,1.2,0,0,1,1.47.78l4.68,15.21a1.17,1.17,0,0,1-.77,1.46A1.48,1.48,0,0,1,1581.24,33.69Z"/><path class="cls-1" d="M1621.75,132a1.17,1.17,0,0,1-.75-.27c-2.55-2.12-4.47-2.32-6.48-.69a1.17,1.17,0,0,1-1.48-1.82c2.89-2.35,6.07-2.11,9.45.71a1.17,1.17,0,0,1-.74,2.07Z"/><path class="cls-1" d="M1621.75,132a1.15,1.15,0,0,1-.9-.42,1.17,1.17,0,0,1,.15-1.65c3.39-2.82,6.56-3.06,9.44-.71A1.17,1.17,0,1,1,1629,131c-2-1.64-3.93-1.42-6.47.69A1.15,1.15,0,0,1,1621.75,132Z"/><path class="cls-1" d="M1253,76.28a1.17,1.17,0,0,1-.75-.27c-2.55-2.12-4.48-2.32-6.47-.7a1.17,1.17,0,1,1-1.48-1.81c2.87-2.36,6-2.12,9.44.71a1.17,1.17,0,0,1-.74,2.07Z"/><path class="cls-1" d="M1253,76.28a1.16,1.16,0,0,1-.87-.39,1.17,1.17,0,0,1,.08-1.65c3.14-2.84,6.61-3.11,9.48-.74a1.17,1.17,0,1,1-1.48,1.81c-2-1.62-4.15-1.41-6.43.66A1.12,1.12,0,0,1,1253,76.28Z"/><path class="cls-1" d="M1356.48,404.78h-129.7a1.18,1.18,0,0,1,0-2.35h129.7a1.18,1.18,0,1,1,0,2.35Zm-157.79,0H1130.8a1.18,1.18,0,1,1,0-2.35h67.89a1.18,1.18,0,0,1,0,2.35Z"/><path class="cls-1" d="M1656.86,404.78h-76.79a1.18,1.18,0,0,1,0-2.35h76.79a1.18,1.18,0,0,1,0,2.35Zm-104.41,0H1430.94a1.18,1.18,0,0,1,0-2.35h121.51a1.18,1.18,0,0,1,0,2.35Z"/><path class="cls-1" d="M105.12,404.08a1.18,1.18,0,0,1-1.17-1.17V334.36a1.18,1.18,0,1,1,2.35,0v68.55A1.18,1.18,0,0,1,105.12,404.08Z"/><path class="cls-1" d="M1928.21,404.78H1650.07a1.18,1.18,0,0,1,0-2.35h278.14a1.18,1.18,0,0,1,0,2.35Z"/><path class="cls-1" d="M1744.19,404.78a26.09,26.09,0,1,1,26-26.21A26.24,26.24,0,0,1,1744.19,404.78Zm0-49.84a23.75,23.75,0,1,0,23.64,23.63A23.78,23.78,0,0,0,1744.19,354.94Z"/><path class="cls-1" d="M1833.15,404.78a26.09,26.09,0,1,1,26-26A26.13,26.13,0,0,1,1833.15,404.78Zm0-49.84a23.75,23.75,0,1,0,0,47.49,23.75,23.75,0,0,0,0-47.49Z"/><path class="cls-1" d="M1744.19,379.28a1.12,1.12,0,0,1-.56-.15,1.18,1.18,0,0,1-.47-1.59l18.71-34.28c-3.9-.1-12.17-.93-14.75-6.29a1.17,1.17,0,0,1,2.1-1c2.67,5.53,14.42,4.95,14.57,5a.94.94,0,0,1,1,.54,1.18,1.18,0,0,1,0,1.18l-19.66,36A1.21,1.21,0,0,1,1744.19,379.28Z"/><path class="cls-1" d="M1807.63,355.65h-.08l-44.25-3.27a1.18,1.18,0,0,1-1.08-1.26,1.17,1.17,0,0,1,1.17-1.08h.08l44.25,3.27a1.17,1.17,0,0,1-.09,2.34Z"/><path class="cls-1" d="M1809.74,363.36a1.06,1.06,0,0,1-.57-.15,1.17,1.17,0,0,1-.45-1.59,61.06,61.06,0,0,1,9.15-11.78c.56-.55,1.16-1.18,29.18.66a1.17,1.17,0,0,1-.08,2.34h-.08c-21.46-1.4-26.6-1.32-27.62-1.1a59.6,59.6,0,0,0-8.51,11A1.15,1.15,0,0,1,1809.74,363.36Z"/><path class="cls-1" d="M1785.86,379.74a1.16,1.16,0,0,1-.91-.43l-22.47-27.37a1.17,1.17,0,1,1,1.81-1.48l22.48,27.37a1.17,1.17,0,0,1-.17,1.65A1.15,1.15,0,0,1,1785.86,379.74Z"/><path class="cls-1" d="M1815.36,346.52a1.17,1.17,0,0,1-.72-2.1l6.43-5a56.25,56.25,0,0,1-10.91.82l.67.24a1.17,1.17,0,0,1-.77,2.2l-8.66-3a1.15,1.15,0,0,1-.76-1.35,1.3,1.3,0,0,1,1.26-.91,66,66,0,0,0,23.51-1.15,1.12,1.12,0,0,1,1.31.65,1.15,1.15,0,0,1-.35,1.41l-10.3,8A1.12,1.12,0,0,1,1815.36,346.52Z"/><path class="cls-1" d="M1791,392.15a8,8,0,1,1,8-8A8,8,0,0,1,1791,392.15Zm0-13.57a5.61,5.61,0,1,0,5.62,5.61A5.62,5.62,0,0,0,1791,378.58Z"/><path class="cls-1" d="M1794.29,379.51a1.27,1.27,0,0,1-.59-.16,1.18,1.18,0,0,1-.42-1.6l21.3-37a1.16,1.16,0,0,1,1.6-.43,1.18,1.18,0,0,1,.42,1.6l-21.3,37A1.18,1.18,0,0,1,1794.29,379.51Z"/><path class="cls-1" d="M1783.05,398a1.14,1.14,0,0,1-.62-.17,1.19,1.19,0,0,1-.38-1.62l8.2-13.1a1.17,1.17,0,1,1,2,1.24l-8.2,13.1A1.19,1.19,0,0,1,1783.05,398Z"/><path class="cls-1" d="M1790.07,401.27a1.1,1.1,0,0,1-.47-.1l-13.81-6.08a1.17,1.17,0,0,1,1-2.14l13.81,6.08a1.17,1.17,0,0,1,.59,1.54A1.18,1.18,0,0,1,1790.07,401.27Z"/><path class="cls-1" d="M1744.19,379.74a1.18,1.18,0,0,1-1.17-1.17V357.28a1.17,1.17,0,1,1,2.34,0v21.29A1.18,1.18,0,0,1,1744.19,379.74Z"/><path class="cls-1" d="M1744.19,379.74a1.21,1.21,0,0,1-.83-.34,1.17,1.17,0,0,1,0-1.66l15-15a1.19,1.19,0,0,1,1.66,0,1.16,1.16,0,0,1,0,1.65l-15,15A1.21,1.21,0,0,1,1744.19,379.74Z"/><path class="cls-1" d="M1765.26,380h0l-21.07-.24a1.16,1.16,0,0,1-1.15-1.18c0-.65.59-1.3,1.18-1.16l21.07.23a1.18,1.18,0,0,1,0,2.35Z"/><path class="cls-1" d="M1758.94,395a1.15,1.15,0,0,1-.84-.36l-14.75-15.21a1.17,1.17,0,0,1,1.68-1.62L1759.78,393a1.17,1.17,0,0,1,0,1.65A1.15,1.15,0,0,1,1758.94,395Z"/><path class="cls-1" d="M1744,401h0a1.19,1.19,0,0,1-1.16-1.19l.24-21.29c0-.65.59-1.3,1.18-1.16a1.17,1.17,0,0,1,1.16,1.19l-.23,21.29A1.18,1.18,0,0,1,1744,401Z"/><path class="cls-1" d="M1729,394.72a1.17,1.17,0,0,1-.82-2l15.22-15a1.17,1.17,0,0,1,1.65,0,1.18,1.18,0,0,1,0,1.66l-15.23,15A1.12,1.12,0,0,1,1729,394.72Z"/><path class="cls-1" d="M1744.19,379.74h0l-21.31-.23a1.17,1.17,0,0,1-1.15-1.19c0-.65.44-1.06,1.19-1.15l21.3.23a1.17,1.17,0,0,1,0,2.34Z"/><path class="cls-1" d="M1744.19,379.74a1.2,1.2,0,0,1-.84-.35l-15-15.21a1.17,1.17,0,0,1,1.67-1.63l15,15.2a1.16,1.16,0,0,1-.83,2Z"/><path class="cls-1" d="M1833.15,380h0a1.17,1.17,0,0,1-1.15-1.19l.23-21.29a1.21,1.21,0,0,1,1.19-1.15,1.19,1.19,0,0,1,1.16,1.19l-.24,21.28A1.18,1.18,0,0,1,1833.15,380Z"/><path class="cls-1" d="M1833.15,380a1.15,1.15,0,0,1-.83-.36,1.17,1.17,0,0,1,0-1.65l15.22-15a1.17,1.17,0,1,1,1.64,1.67l-15.22,15A1.18,1.18,0,0,1,1833.15,380Z"/><path class="cls-1" d="M1854.46,380.22h0l-21.31-.24a1.18,1.18,0,0,1,0-2.35h0l21.31.24a1.18,1.18,0,0,1,0,2.35Z"/><path class="cls-1" d="M1847.9,395.19a1.15,1.15,0,0,1-.84-.36l-14.75-15.21A1.17,1.17,0,1,1,1834,378l14.75,15.22a1.16,1.16,0,0,1,0,1.65A1.13,1.13,0,0,1,1847.9,395.19Z"/><path class="cls-1" d="M1832.92,401.27a1.22,1.22,0,0,1-1.17-1.19l.23-21.29a1.18,1.18,0,0,1,1.17-1.16h0a1.17,1.17,0,0,1,1.15,1.19l-.23,21.29A1.17,1.17,0,0,1,1832.92,401.27Z"/><path class="cls-1" d="M1817.94,395a1.17,1.17,0,0,1-.82-2l15.21-15a1.16,1.16,0,0,1,1.66,0,1.18,1.18,0,0,1,0,1.65l-15.22,15A1.12,1.12,0,0,1,1817.94,395Z"/><path class="cls-1" d="M1833.15,380h0l-21.3-.24a1.16,1.16,0,0,1-1.15-1.18c0-.65.57-1.3,1.19-1.16l21.3.23a1.18,1.18,0,0,1,0,2.35Z"/><path class="cls-1" d="M1833.15,380a1.15,1.15,0,0,1-.83-.36l-15-15.2a1.17,1.17,0,1,1,1.67-1.64L1834,378a1.18,1.18,0,0,1-.84,2Z"/><path class="cls-1" d="M105.82,335.29A20.9,20.9,0,0,1,86,320.67a1.18,1.18,0,0,1,.76-1.47,1.2,1.2,0,0,1,1.47.75,18.55,18.55,0,0,0,17.61,13,18.21,18.21,0,0,0,17.38-13,1.17,1.17,0,0,1,2.25.66A20.57,20.57,0,0,1,105.82,335.29Z"/><path class="cls-1" d="M137.9,314a1.21,1.21,0,0,1-.83-.34,1.17,1.17,0,0,1,0-1.66,18.3,18.3,0,0,0-16.73-30.78,1.14,1.14,0,0,1-1.38-.92,1.18,1.18,0,0,1,.91-1.38,20.66,20.66,0,0,1,18.86,34.74A1.21,1.21,0,0,1,137.9,314Z"/><path class="cls-1" d="M80.54,323.12a9.28,9.28,0,0,1-9.09-6.72,1.17,1.17,0,1,1,2.26-.59,7,7,0,0,0,6.83,5,7.12,7.12,0,0,0,6.86-5,1.17,1.17,0,1,1,2.21.74A9.49,9.49,0,0,1,80.54,323.12Z"/><path class="cls-1" d="M141.17,328.74a1.14,1.14,0,0,1-.86-.39,1.16,1.16,0,0,1,.08-1.65,6.62,6.62,0,0,0,1.18-8.15,7.12,7.12,0,0,0-7.66-3.64,1.17,1.17,0,1,1-.45-2.3,9.52,9.52,0,0,1,10.14,4.79,8.94,8.94,0,0,1-1.64,11A1.17,1.17,0,0,1,141.17,328.74Z"/><path class="cls-1" d="M79.13,288.26a1.17,1.17,0,0,1-1.12-.85,17.22,17.22,0,0,1,27.64-17.82,1.16,1.16,0,0,1,.12,1.65,1.14,1.14,0,0,1-1.64.12,14.89,14.89,0,0,0-23.87,15.41,1.17,1.17,0,0,1-.8,1.44A1,1,0,0,1,79.13,288.26Z"/><path class="cls-1" d="M105.59,274.23l-.23,0a1.17,1.17,0,0,1-.92-1.38,9.7,9.7,0,0,1,8.5-7.48l.64,0a9.3,9.3,0,0,1,8.81,6.19,1.17,1.17,0,0,1-2.22.74,7.06,7.06,0,0,0-7-4.58,7.33,7.33,0,0,0-6.42,5.62A1.18,1.18,0,0,1,105.59,274.23Z"/><path class="cls-1" d="M67.9,323.12a1.14,1.14,0,0,1-.79-.31,20.52,20.52,0,0,1,17.6-35.24,1.19,1.19,0,0,1,1,1.35,1.22,1.22,0,0,1-1.35,1A18.18,18.18,0,0,0,68.7,321.09a1.18,1.18,0,0,1,.06,1.66A1.17,1.17,0,0,1,67.9,323.12Z"/><path class="cls-1" d="M125,295.75a1.15,1.15,0,0,1-1.13-.87,9.4,9.4,0,0,1,4-10.42,9.14,9.14,0,0,1,11.23.59,1.17,1.17,0,0,1-1.57,1.73,6.88,6.88,0,0,0-8.42-.34,7.08,7.08,0,0,0-3,7.84,1.18,1.18,0,0,1-.83,1.43A1,1,0,0,1,125,295.75Z"/><path class="cls-1" d="M119.41,300.66a1.16,1.16,0,0,1-1.12-.83,15.36,15.36,0,0,0-29.38,0,1.13,1.13,0,0,1-1.46.77,1.16,1.16,0,0,1-.77-1.46,17.69,17.69,0,0,1,33.84,0,1.15,1.15,0,0,1-.77,1.46A1,1,0,0,1,119.41,300.66Z"/><path class="cls-1" d="M126,305.81a1.17,1.17,0,0,1-1.11-.8,5.84,5.84,0,0,0-5.44-4.11,5.93,5.93,0,0,0-5.69,4.11,1.17,1.17,0,1,1-2.21-.74,8.15,8.15,0,0,1,15.56,0,1.16,1.16,0,0,1-.74,1.48A1.19,1.19,0,0,1,126,305.81Z"/><path class="cls-1" d="M89.85,341.15a20.78,20.78,0,0,1-19.56-14.39,1.19,1.19,0,0,1,.76-1.48,1.21,1.21,0,0,1,1.48.76A18.4,18.4,0,0,0,89.88,338.8a19,19,0,0,0,10.63-3.1,1.18,1.18,0,0,1,1.27,2A20.84,20.84,0,0,1,89.85,341.15Z"/><path class="cls-1" d="M121.74,337.17h-.51a16.3,16.3,0,0,1-8.52-2.52,1.17,1.17,0,0,1-.4-1.6,1.19,1.19,0,0,1,1.61-.4,14.54,14.54,0,0,0,7.81,2.18A12.89,12.89,0,0,0,134,325.57a1.17,1.17,0,0,1,2.23.71A15.41,15.41,0,0,1,121.74,337.17Z"/><path class="cls-1" d="M460.51,230.93a1.15,1.15,0,0,1-.9-.42c-1.6-1.95-3.16-2.95-4.61-3H455a5,5,0,0,0-3.62,2.06,1.17,1.17,0,1,1-1.76-1.54A7.19,7.19,0,0,1,455,225.2H455c2.17,0,4.32,1.32,6.38,3.82a1.15,1.15,0,0,1-.15,1.64A1.12,1.12,0,0,1,460.51,230.93Z"/><path class="cls-1" d="M460.51,230.93a1.16,1.16,0,0,1-.87-2c2.22-2.51,4.46-3.78,6.65-3.78h0a7.22,7.22,0,0,1,5.38,2.86,1.17,1.17,0,0,1-1.77,1.54,5,5,0,0,0-3.62-2.06h0c-1.49,0-3.14,1-4.9,3A1.19,1.19,0,0,1,460.51,230.93Z"/><path class="cls-1" d="M1688.7,404.55a1.18,1.18,0,0,1-1.17-1.18V270c-1.88-11.22-15.12-19.3-25.88-22.75a1.18,1.18,0,0,1-.75-1.48,1.2,1.2,0,0,1,1.47-.75c11.38,3.65,25.41,12.34,27.49,24.79V403.37A1.18,1.18,0,0,1,1688.7,404.55Z"/><path class="cls-1" d="M1715.75,247.26a55.54,55.54,0,0,0-9.86,4.26c-.51.27-1,.56-1.5.86a44.15,44.15,0,0,0-4.46,3c-5.11,3.93-9.09,8.92-10.07,14.81a1.2,1.2,0,0,1-1.16,1l-.19,0a1.19,1.19,0,0,1-1-1.16h0a1.21,1.21,0,0,1,0-.19,19.91,19.91,0,0,1,1.16-4.11c2.51-6.3,8.06-11.44,14.32-15.22h0c.62-.39,1.26-.75,1.89-1.09A57.37,57.37,0,0,1,1715,245a1.36,1.36,0,0,1,.53,0,1.16,1.16,0,0,1,.94.78A1.18,1.18,0,0,1,1715.75,247.26Z"/><path class="cls-1" d="M1676.45,254.61a8.52,8.52,0,0,0-4.61-5.33l-9.13-4a6.64,6.64,0,0,0-.81-.3,8.18,8.18,0,0,0-5.74,15.32l9.1,4a8,8,0,0,0,6.3.2,8.3,8.3,0,0,0,4.65-4.37A8.71,8.71,0,0,0,1676.45,254.61Zm-2.39,4.6a6,6,0,0,1-3.33,3.1,5.64,5.64,0,0,1-4.5-.16l-9.14-4a5.76,5.76,0,0,1-3.14-7.8,5.84,5.84,0,0,1,5.33-3.47,6.46,6.46,0,0,1,2.5.53h0l9.09,4A6.11,6.11,0,0,1,1674.06,259.21Z"/><path class="cls-1" d="M1674.06,259.21a6,6,0,0,1-3.33,3.1,5.64,5.64,0,0,1-4.5-.16l-9.14-4a5.76,5.76,0,0,1-3.14-7.8,5.84,5.84,0,0,1,5.33-3.47,6.46,6.46,0,0,1,2.5.53h0l9.09,4A6.11,6.11,0,0,1,1674.06,259.21Z"/><path class="cls-1" d="M1724.67,249.69a7.62,7.62,0,0,0-4.37-4.32,8.09,8.09,0,0,0-4.74-.37,8.19,8.19,0,0,0-1.58.54l-9.07,3.86-.32.13a8,8,0,0,0-1.57,1h0a8.33,8.33,0,0,0-3.09,4.91,8.42,8.42,0,0,0,4.94,9.31,8.2,8.2,0,0,0,3,.56,7.74,7.74,0,0,0,3.32-.74l9.41-4A8.16,8.16,0,0,0,1724.67,249.69Zm-5.06,8.71-9.4,4a5.67,5.67,0,0,1-4.48.13,5.49,5.49,0,0,1-3.09-3.07,5.87,5.87,0,0,1,1.75-7.08,5.66,5.66,0,0,1,1.16-.72l.34-.14,9-3.84h0a5.62,5.62,0,0,1,4.49-.12,5.42,5.42,0,0,1,3.08,3A5.88,5.88,0,0,1,1719.61,258.4Z"/><path class="cls-1" d="M1719.61,258.4l-9.4,4a5.67,5.67,0,0,1-4.48.13,5.49,5.49,0,0,1-3.09-3.07,5.87,5.87,0,0,1,1.75-7.08c.49-.3,1-.59,1.5-.86l9-3.84h0a5.62,5.62,0,0,1,4.49-.12,5.42,5.42,0,0,1,3.08,3A5.88,5.88,0,0,1,1719.61,258.4Z"/><path class="cls-1" d="M1030,421.62A136,136,0,0,1,893.81,295.25a136.73,136.73,0,0,1,115.54-144.79c5.48-.88,9.75-3.29,13.82-7.82L1145.84.41a1.16,1.16,0,1,1,1.76,1.52L1024.92,144.19c-4.47,5-9.15,7.61-15.21,8.58a134.15,134.15,0,0,0-67.55,234.05A134.88,134.88,0,0,0,1097,401.43a1.17,1.17,0,0,1,1.18,2A136.63,136.63,0,0,1,1030,421.62Z"/><path class="cls-1" d="M1001.1,126.81a1.17,1.17,0,0,1-.19-2.32,25,25,0,0,0,14.77-8l39.78-46.07a1.17,1.17,0,1,1,1.77,1.52L1017.43,118a27.28,27.28,0,0,1-16.15,8.82Z"/><path class="cls-1" d="M1028.93,396.24a109.69,109.69,0,0,1-37.36-6.51,1.17,1.17,0,1,1,.8-2.2A108.43,108.43,0,0,0,1121.84,229a1.19,1.19,0,0,1,.39-1.62,1.17,1.17,0,0,1,1.61.4,110.62,110.62,0,0,1-94.91,168.49Zm-94.8-54.87a1.18,1.18,0,0,1-1-.58A110.9,110.9,0,0,1,1023.51,175c.58-.16,1.19.45,1.22,1.1a1.16,1.16,0,0,1-1.1,1.23,108.56,108.56,0,0,0-88.48,162.27,1.17,1.17,0,0,1-.43,1.59A1.11,1.11,0,0,1,934.13,341.37Z"/><path class="cls-1" d="M911.2,402.43H772c5.49-5.28,11.76-11.06,18.42-17.14l1.74-1.59,3.85-3.5c36.11-32.89,83.13-75.72,99.09-116.13h0a76.82,76.82,0,0,0,5.43-22.17h0c.11-1.47.16-2.94.16-4.4,0-28.65-15.93-52.84-42.6-64.71-14.28-6.47-33.11-9.23-63-9.23a1.17,1.17,0,0,0-.37,2.28C830.26,177.6,840.64,191,853.17,241l15.44,62.2c-21.22,27-50.15,53.32-74.2,75.23-9.46,8.61-18.41,16.76-25.8,24-.11.12-.23.23-.35.34a1.19,1.19,0,0,0-.26,1.28,1.16,1.16,0,0,0,1.08.73H911.2a1.18,1.18,0,0,0,0-2.35Zm-55.76-162c-12-47.87-22.08-62.88-53.34-74.53,25.5.4,42.18,3.15,55,9,25.81,11.49,41.22,34.88,41.22,62.58,0,20.18-11.39,41.95-27.88,63.39Z"/><path class="cls-1" d="M898.32,237.49c0,20.18-11.39,41.95-27.88,63.39l-15-60.4c-12-47.87-22.08-62.88-53.34-74.53,25.5.4,42.18,3.15,55,9C882.91,186.4,898.32,209.79,898.32,237.49Z"/><path class="cls-1" d="M1099.66,91.48a1.14,1.14,0,0,1-.79-.31,1.16,1.16,0,0,1-.07-1.65l39.34-42.59a1.19,1.19,0,0,1,1.65-.06,1.16,1.16,0,0,1,.06,1.65l-39.33,42.59A1.17,1.17,0,0,1,1099.66,91.48Z"/><path class="cls-1" d="M1087.49,241.24a1.18,1.18,0,0,1-.94-.48,74.07,74.07,0,0,0-84.12-25.34,1.17,1.17,0,1,1-.8-2.2c31.19-11.36,66.9-.59,86.8,26.14a1.17,1.17,0,0,1-.24,1.64A1.16,1.16,0,0,1,1087.49,241.24Z"/><path class="cls-1" d="M826.7,402.43H772c5.49-5.28,11.76-11.06,18.42-17.14C799.8,393.31,812.52,399.26,826.7,402.43Z"/><path class="cls-1" d="M844,403.69a1.17,1.17,0,0,1-1.16,1.09h-.08a106.44,106.44,0,0,1-16-2.34c-14.18-3.17-26.9-9.12-36.31-17.14q-.27-.21-.54-.45a1.17,1.17,0,0,1,1.54-1.77c.25.22.49.43.74.63C804.6,394.23,823,401,842.84,402.43h.07A1.17,1.17,0,0,1,844,403.69Z"/><path class="cls-1" d="M733,202.39H717.81a5.58,5.58,0,0,1-5.62-5.39,5.73,5.73,0,0,1,3.95-5.42,7.16,7.16,0,0,1,6.82-5.1,7.38,7.38,0,0,1,6.47,3.8,4,4,0,0,1,5,3.42,4.34,4.34,0,0,1,3.15,4.47A4.39,4.39,0,0,1,733,202.39ZM723,188.82a4.83,4.83,0,0,0-4.69,3.94l-.15.87-.88.1a3.34,3.34,0,0,0-2.71,3.27,3.25,3.25,0,0,0,3.28,3.05H733a2,2,0,0,0,2.19-2,2.08,2.08,0,0,0-2.08-2.22l-1-.11V194.2a1.54,1.54,0,0,0-1.64-1.64c-.69,0-.71,0-.81.12l-1.38,1.39-.56-1.88A5,5,0,0,0,723,188.82Z"/></g></g></svg>