<svg xmlns="http://www.w3.org/2000/svg" xmlns:xlink="http://www.w3.org/1999/xlink" viewBox="0 0 1624.37 1538.29"><defs><style>.cls-1{fill:none;}.cls-2{fill:#9192ff;}.cls-3{fill:#ebebff;}.cls-4{clip-path:url(#clip-path);}.cls-10,.cls-5{fill:#fff;}.cls-6{fill:#d1d1ff;}.cls-7{opacity:0.8;}.cls-8{fill:#fff2e0;opacity:0.7;}.cls-9{fill:#ffa121;}.cls-10{opacity:0.4;}.cls-11{fill:#3335cf;}.cls-12,.cls-16{fill:#1b1b43;}.cls-13{fill:#c5c5ff;}.cls-14{fill:#ffbc96;}.cls-15{fill:#d28572;}.cls-16{opacity:0.3;}.cls-17{fill:#fe5b52;opacity:0.2;}</style><clipPath id="clip-path"><path class="cls-1" d="M801.22,842a57.86,57.86,0,0,0,57.86,57.85h642.56A57.85,57.85,0,0,0,1559.49,842v-391H801.22Z"/></clipPath></defs><g id="Layer_2" data-name="Layer 2"><g id="OBJECTS"><path class="cls-2" d="M401.36,898.93l-1.73-1.81,10.85-10.35,1.73,1.81ZM423,878.16l-1.76-1.78c3.53-3.47,7.07-7,10.52-10.64l1.8,1.73C430.12,871.08,426.57,874.68,423,878.16Zm20.83-21.67L442,854.8c3.31-3.64,6.65-7.41,9.93-11.2l1.89,1.64C450.54,849,447.19,852.83,443.86,856.49Zm19.65-22.75-1.93-1.59c3.12-3.8,6.27-7.73,9.35-11.68l2,1.54C469.8,826,466.64,829.92,463.51,833.74ZM482,810.05l-2-1.49c2.93-3.95,5.89-8,8.8-12.11l2,1.44C487.93,802,485,806.09,482,810.05Zm17.4-24.5-2.07-1.4q4.2-6.21,8.27-12.49l2.1,1.36Q503.63,779.32,499.41,785.55Zm137-17.34a36.61,36.61,0,0,1-13.47-2.56l.93-2.32a34.09,34.09,0,0,0,12.54,2.38c.62-.05,1.08,0,1.62,0l.12,2.49C637.54,768.2,636.85,768.16,636.38,768.21Zm16.6-4.27-1.25-2.16a27.29,27.29,0,0,0,10-10.07l2.17,1.24A29.67,29.67,0,0,1,653,763.94Zm-137.23-3.61L513.63,759q3.95-6.36,7.77-12.8l2.15,1.28Q519.71,754,515.75,760.33Zm94.49-3.48a43.86,43.86,0,0,1-8.23-13l2.31-1a41.37,41.37,0,0,0,7.75,12.24ZM668,738.05l-2.5,0v-.67a26,26,0,0,0-2.2-10.61c-.38-.84-.8-1.65-1.25-2.44l2.18-1.24c.49.86.93,1.74,1.34,2.65A28.41,28.41,0,0,1,668,737.33ZM532.1,735.43l-1.92-1.61A95.54,95.54,0,0,1,540.84,723l1.63,1.89A93,93,0,0,0,532.1,735.43Zm66-6.35a61.82,61.82,0,0,1-.43-7.23,64.3,64.3,0,0,1,.51-8l2.48.31a63.18,63.18,0,0,0-.49,7.73,56.8,56.8,0,0,0,.42,6.93Zm-43.75-12.94L553.08,714a101.4,101.4,0,0,1,13.46-7l1,2.29A100.77,100.77,0,0,0,554.39,716.14Zm98.06-2.57a54.61,54.61,0,0,0-12.77-7.12l.93-2.32A57.59,57.59,0,0,1,654,711.58Zm-70.94-9.13-.65-2.42a108.27,108.27,0,0,1,14.87-2.93l.31,2.48A103.68,103.68,0,0,0,581.51,704.44Zm44-2.08a90.61,90.61,0,0,0-14.7-1.54l.06-2.5A93.31,93.31,0,0,1,626,699.91Zm-21.37-2.52L601.8,699a75.62,75.62,0,0,1,6.6-13.73l2.13,1.31A72.56,72.56,0,0,0,604.15,699.84Zm15.29-25-1.84-1.7c.73-.79,1.48-1.56,2.24-2.31A81.29,81.29,0,0,1,629,663l1.48,2a79.21,79.21,0,0,0-8.87,7.54C620.86,673.34,620.14,674.08,619.44,674.84Zm23.66-17.43L642,655.17a93,93,0,0,1,14.11-5.61l.73,2.39A90,90,0,0,0,643.1,657.41Zm28.2-9.19-.62-2.42c4.89-1.25,9.75-2.56,14.45-3.89l.68,2.4C681.09,645.65,676.21,647,671.3,648.22ZM700.22,640l-.75-2.38c4.82-1.52,9.6-3.1,14.2-4.71l.82,2.36C709.87,636.89,705.07,638.48,700.22,640Zm28.39-9.93-.9-2.33c4.68-1.81,9.33-3.72,13.83-5.66l1,2.29C738,626.33,733.32,628.25,728.61,630.07Zm27.62-11.93-1.08-2.25,13.49-6.55,1.09,2.25Zm27-13.11-1.09-2.25,13.49-6.56,1.09,2.25Zm27-13.12-1.09-2.24,13.49-6.56,1.09,2.25Zm27-13.11-1.09-2.25L849.58,570l1.1,2.25Zm27-13.12-1.09-2.25,13.49-6.55,1.1,2.24Z"/><path class="cls-3" d="M818.07,100.8a12.88,12.88,0,0,0,.06,1.52H1146.9c-.86-27.1-24.45-48.83-53.38-48.83a55.88,55.88,0,0,0-25.58,6.13c.4-21.09-9.73-41.29-28.41-52.13-28-16.23-64.68-5.21-81.83,24.63a65.66,65.66,0,0,0-8.64,28.3c-13.67-6.26-30.61-10-49-10C854.78,50.44,818.07,73,818.07,100.8Z"/><path class="cls-2" d="M271.1,869.05H0l0-1c.72-22.94,20.34-40.91,44.66-40.91a47.06,47.06,0,0,1,20,4.46c.18-17.56,9.18-33.56,23.75-42a47.17,47.17,0,0,1,36.12-4.57,52.87,52.87,0,0,1,32.19,25.09,54.7,54.7,0,0,1,7.09,22.25,98.71,98.71,0,0,1,39.29-7.72c37.56,0,68.11,18.93,68.11,42.19a12.37,12.37,0,0,1-.05,1.36ZM2,867.17H269.38v-.31c0-22.23-29.71-40.31-66.24-40.31-14.43,0-28.17,2.8-39.73,8.09l-1.24.57-.09-1.36a52.45,52.45,0,0,0-7-22.77,51,51,0,0,0-31-24.22,45.29,45.29,0,0,0-34.69,4.39c-14.4,8.35-23.14,24.4-22.81,41.87l0,1.57-1.4-.72a45,45,0,0,0-20.52-4.92C21.73,829.05,3.15,845.72,2,867.17Z"/><g class="cls-4"><path class="cls-5" d="M801.22,842a57.86,57.86,0,0,0,57.86,57.85h642.56A57.85,57.85,0,0,0,1559.49,842v-391H801.22Z"/><path class="cls-6" d="M761.54,550.77c8.87-28.42,36.91-50.23,67.55-52.54s61.9,15,75.31,41.78c16.31-.16,32.37,8.88,40.29,22.67a43.6,43.6,0,0,1-1.4,45c19.41,3.36,36.84,16.14,45.43,33.3a59.69,59.69,0,0,1-1.21,55c21.36-10.86,48.69-9.87,69.19,2.51s33.42,35.68,32.7,59c13.31-20.87,38.83-33.89,64.2-32.73s49.55,16.43,60.84,38.43c11.91-35.63,43.67-64.4,81.24-73.6s79.73,1.49,107.85,27.33c42.3,6.62,73.12,52.54,62.1,92.52,22.85,18.9,34.53,49.64,29.75,78.3S1469.54,942,1441.72,953L714,952.52,652,674.89Z"/><g class="cls-7"><path class="cls-5" d="M750,643c8.58-28.43,35.69-50.26,65.3-52.6s59.8,15,72.73,41.71a44,44,0,0,1,37.52,67.64A60.53,60.53,0,0,1,968.2,788a67.13,67.13,0,0,1,98.39,61.44c12.88-20.88,37.54-33.92,62.05-32.78s47.87,16.39,58.75,38.38c11.54-35.64,42.24-64.44,78.55-73.66s77,1.43,104.18,27.25c40.86,6.58,70.6,52.48,59.93,92.46,22.06,18.88,33.31,49.61,28.67,78.28s-25,54.28-51.89,65.25l-703,.1L644.07,767.18Z"/></g><path class="cls-8" d="M1308.94,463.6C1098.33,661.66,949,715.06,760.83,734.16l-12.5,200,197.5,67.5c172.5-5,338.13-254.73,440.44-469l-77.33-69.1"/><path class="cls-9" d="M1338.6,466.17c-34.24,40.51-85.88,79.26-146.79,131.6l83.11-33.87c-10.19,16.89-25,40.52-33.35,50.66,19.15-8.85,50-28.3,60.18-38.61,0,14.39-17.34,38.46-24.9,51.61,44.33-37.94,84.66-84.25,97.68-124.94l-35.93-36.45"/><path class="cls-10" d="M1348.31,468.22c-20.26,26.85-50.57,52.73-86.4,87.59l48.5-23c-6.08,11.15-14.92,26.76-19.85,33.48,11.19-6,29.25-19,35.27-25.87-.15,9.41-10.44,25.33-15,34,26.07-25.27,49.91-56,57.88-82.73l-20.44-23.47"/><path class="cls-6" d="M1033.82,605.82c.27,6.26,0,16.83-6.26,20.45-10.44,6.05-18.65-8.63-22.49-16-4.57-8.81-3.4-19.74,6.94-23.67C1025.67,581.4,1033.32,594.13,1033.82,605.82Z"/><path class="cls-6" d="M1528.94,795.93c.27,6.26,0,16.83-6.26,20.45-10.44,6-18.65-8.63-22.49-16-4.57-8.81-3.4-19.74,6.94-23.67C1520.79,771.51,1528.44,784.24,1528.94,795.93Z"/><circle class="cls-6" cx="978.33" cy="534.99" r="8.75"/><circle class="cls-6" cx="1423.33" cy="692.91" r="13.32" transform="translate(-159.65 705.88) rotate(-26.43)"/></g><path class="cls-2" d="M1501.64,901.14H859.08A59.17,59.17,0,0,1,800,842V449.83h760.77V842A59.16,59.16,0,0,1,1501.64,901.14ZM802.47,452.33V842a56.67,56.67,0,0,0,56.61,56.6h642.56a56.66,56.66,0,0,0,56.6-56.6V452.33Z"/><path class="cls-5" d="M1501.64,299.62H859.08a57.85,57.85,0,0,0-57.86,57.85v93.61h758.27V357.47A57.84,57.84,0,0,0,1501.64,299.62Z"/><path class="cls-2" d="M1560.74,452.33H800V357.47a59.18,59.18,0,0,1,59.11-59.11h642.56a59.17,59.17,0,0,1,59.1,59.11Zm-758.27-2.5h755.77V357.47a56.67,56.67,0,0,0-56.6-56.61H859.08a56.67,56.67,0,0,0-56.61,56.61Z"/><circle class="cls-6" cx="877.61" cy="375.35" r="31.72" transform="translate(335.2 1160.76) rotate(-78.53)"/><circle class="cls-5" cx="971.03" cy="375.35" r="31.72" transform="translate(19 796.56) rotate(-45)"/><path class="cls-2" d="M971,408.32a33,33,0,1,1,33-33A33,33,0,0,1,971,408.32Zm0-63.44a30.47,30.47,0,1,0,30.47,30.47A30.51,30.51,0,0,0,971,344.88Z"/><rect class="cls-5" x="1055.91" y="345.08" width="186.83" height="60.55" rx="30.27"/><path class="cls-2" d="M1212.47,406.87H1086.18a31.52,31.52,0,1,1,0-63h126.29a31.52,31.52,0,0,1,0,63Zm-126.29-60.54a29,29,0,1,0,0,58h126.29a29,29,0,0,0,0-58Z"/><path class="cls-11" d="M1470.19,230.61c-50.64,44.33-138,13.78-165.12,49.18l77.56,61.41Z"/><path class="cls-6" d="M1305.07,279.79h0a30,30,0,0,0,5.48,30.25l55,62.95,17.12-31.79Z"/><path class="cls-11" d="M1585,321.5c-31.54,59.45,18.22,137.46-10,172l-77.55-61.41Z"/><path class="cls-6" d="M1575,493.49h0a30,30,0,0,1-30.71,1.61L1470.38,456l27-23.95Z"/><polygon class="cls-12" points="1624.37 154.42 1555.32 179.77 1615.52 227.44 1624.37 154.42"/><path class="cls-13" d="M1615.52,227.44c-9.65,109.25-90.37,211.19-188.42,267.82l-89.34-70.68c37.49-117.95,107.31-202.36,217.56-244.81Z"/><polygon class="cls-11" points="1337.76 424.58 1299 451.42 1409.85 539.2 1427.1 495.26 1337.76 424.58"/><circle class="cls-5" cx="1529.4" cy="274.35" r="41.47" transform="translate(-21.69 182.48) rotate(-6.78)"/><path class="cls-2" d="M1532.54,303.73l-.27-2.48a27.26,27.26,0,0,0,7-1.69l.9,2.33A29.16,29.16,0,0,1,1532.54,303.73Zm-7.81-.2a29.46,29.46,0,0,1-7.48-2.23l1-2.28a27.13,27.13,0,0,0,6.84,2.05Zm22.23-5.4-1.48-2a27.17,27.17,0,0,0,5.13-5l2,1.55A29.49,29.49,0,0,1,1547,298.13Zm-36.34-1a29.67,29.67,0,0,1-5.32-5.71l2-1.45a27.16,27.16,0,0,0,4.88,5.23Zm45-9.18-2.21-1.15a27.15,27.15,0,0,0,2.43-6.72l2.44.53A29.45,29.45,0,0,1,1555.62,288Zm-54-3.44a29.63,29.63,0,0,1-1.7-7.62l2.49-.22a26.85,26.85,0,0,0,1.56,7ZM1556.42,273a27.51,27.51,0,0,0-1.29-7l2.37-.77a29.43,29.43,0,0,1,1.42,7.67Zm-53.66-3.42-2.46-.44a29.37,29.37,0,0,1,2.38-7.44l2.26,1.08A26.87,26.87,0,0,0,1502.76,269.57ZM1552,259.52a27.1,27.1,0,0,0-4.68-5.41l1.66-1.87a29.67,29.67,0,0,1,5.11,5.91Zm-43.21-2.75-1.9-1.63a29.34,29.34,0,0,1,5.81-5.21l1.41,2.06A26.82,26.82,0,0,0,1508.83,256.77Zm32.61-6.66a26.6,26.6,0,0,0-6.76-2.3l.48-2.46a29.74,29.74,0,0,1,7.39,2.52Zm-20.91-1.33-.81-2.36a29.65,29.65,0,0,1,7.64-1.56l.18,2.5A27,27,0,0,0,1520.53,248.78Z"/><rect class="cls-12" x="1359.15" y="409.9" width="15.97" height="138.72" rx="6.73" transform="translate(592.87 -745.19) rotate(38.37)"/><path class="cls-2" d="M1462.81,1390.49h-15V1388h15Zm-30,0h-15V1388h15Zm-30,0h-15V1388h15Zm-30,0h-15V1388h15Zm-30,0h-15V1388h15Zm-30,0h-15V1388h15Zm-30,0h-15V1388h15Zm-30,0h-15V1388h15Zm-30,0h-15V1388h15Zm-30,0h-15V1388h15Zm-30,0a47.43,47.43,0,0,1-15.11-2.58l.81-2.36a45.32,45.32,0,0,0,14.32,2.44Zm301.82,0-.1-2.5a45.11,45.11,0,0,0,14.25-2.85l.88,2.34A47.74,47.74,0,0,1,1464.62,1390.46Zm-330.45-9.78a48.07,48.07,0,0,1-10.55-11.13l2.06-1.41a45.75,45.75,0,0,0,10,10.55Zm358.79-.84-1.58-1.95a45.26,45.26,0,0,0,9.7-10.82l2.11,1.35A48.4,48.4,0,0,1,1493,1379.84Zm-375.85-24.17a47.9,47.9,0,0,1-1.82-13.13v-2h2.5v2a45.36,45.36,0,0,0,1.73,12.45Zm392.18-1.31-2.42-.62a45.76,45.76,0,0,0,1.39-11.2v-3.37h2.5v3.37A47.91,47.91,0,0,1,1509.29,1354.36Zm-391.5-28.86h-2.5v-15h2.5Zm393-1.33h-2.5v-15h2.5Zm-393-28.67h-2.5v-15h2.5Zm393-1.33h-2.5v-15h2.5Zm-393-28.67h-2.5v-15h2.5Zm393-1.33h-2.5v-15h2.5Zm-393-28.67h-2.5v-15h2.5Zm393-1.33h-2.5v-15h2.5Zm-393-28.67h-2.5v-15h2.5Zm393-1.33h-2.5v-15h2.5Zm-393-28.67h-2.5v-10a48.78,48.78,0,0,1,.27-5.12l2.49.26a46.54,46.54,0,0,0-.26,4.86Zm393-1.33h-2.5v-8.67a46.56,46.56,0,0,0-.41-6.14l2.48-.34a50.13,50.13,0,0,1,.43,6.48Zm-388.87-27.55-2.28-1a48,48,0,0,1,8.53-12.74l1.83,1.7A45.14,45.14,0,0,0,1121.89,1146.62Zm381.72-1.16a45.58,45.58,0,0,0-8.42-11.85l1.79-1.75a48.12,48.12,0,0,1,8.88,12.5Zm-362.18-19.84-1.2-2.2a48.07,48.07,0,0,1,14.46-5.11l.45,2.46A45.23,45.23,0,0,0,1141.43,1125.62Zm342-.61a45.24,45.24,0,0,0-13.83-4.45l.37-2.47a47.54,47.54,0,0,1,14.6,4.7Zm-28.62-5h-15v-2.5h15Zm-30,0h-15v-2.5h15Zm-30,0h-15v-2.5h15Zm-30,0h-15v-2.5h15Zm-30,0h-15v-2.5h15Zm-30,0h-15v-2.5h15Zm-30,0h-15v-2.5h15Zm-30,0h-15v-2.5h15Zm-30,0h-15v-2.5h15Zm-30,0h-15v-2.5h15Z"/><rect class="cls-2" x="1079.39" y="1069.27" width="392.97" height="277.89" rx="36.91"/><rect class="cls-5" x="1147.72" y="1231.59" width="42.55" height="86.41"/><rect class="cls-5" x="1218.98" y="1234.37" width="42.55" height="83.64"/><rect class="cls-5" x="1290.23" y="1190.68" width="42.55" height="127.33"/><rect class="cls-5" x="1361.49" y="1153.32" width="42.55" height="164.68"/><rect class="cls-5" x="1161.72" y="1108.41" width="228.31" height="9.98"/><path class="cls-9" d="M466.57,798A118.47,118.47,0,0,0,423,735.44l-8.44-6.22,7.17,148.24,55.4-42.86Z"/><path class="cls-14" d="M644.6,977.17l-12.31-24.1A24.45,24.45,0,0,0,617,940.62l-36.21-10-93.16-59.48L477.13,834.6l-55.4,42.86.5,10.41a54.78,54.78,0,0,0,33,47.65l90.46,39,43,1c13.86,4.78,18.64,16.72,27.24,12.42,3.2-1.6-9.32-22.21-9.32-22.21l20.78,22.93Z"/><rect class="cls-15" x="472.16" y="876.85" width="18.81" height="2.87" transform="translate(-499.62 676.89) rotate(-49.66)"/><path class="cls-14" d="M489.11,1036.43l67.78-6c44.12-3.89,82.5,31.73,84.65,78.58l15.32,333.81-93.5,2.91Z"/><polygon class="cls-12" points="570.88 1442.43 573.75 1534.64 712.29 1534.64 643.98 1477.79 639.68 1433.36 570.88 1442.43"/><rect class="cls-5" x="611.01" y="1486.15" width="36.79" height="5.73" transform="translate(-777.94 693.6) rotate(-37.61)"/><polygon class="cls-6" points="532.81 1443.22 535.67 1535.42 674.22 1535.42 605.9 1478.57 601.6 1434.14 532.81 1443.22"/><rect class="cls-5" x="572.94" y="1486.93" width="36.79" height="5.73" transform="translate(-786.33 670.52) rotate(-37.61)"/><path class="cls-14" d="M636,1452.29H521.34l-81.72-251.44-11.44-35.21-163.39-.71c-10.09-.15-19.75-4.82-28-11.73-17.37-14.64-25.37-37.66-22.21-60.16L229,990.79l242.73,31.56a109,109,0,0,1,92.68,85.88Z"/><polygon class="cls-12" points="461.86 1165.64 439.62 1200.85 428.18 1165.64 461.86 1165.64"/><path class="cls-9" d="M431.85,972.27c-1.18,4.73-2.41,9.46-3.67,14.22l-8.6,35.11-113.23-4.7-81.52-3.38A35,35,0,0,1,192,971.38l38-182.91a69.44,69.44,0,0,1,61.46-58.28l93-9.57,30.09,8.6C444,745,444,773.56,445.38,792.28,451.54,874.21,444,923.83,431.85,972.27Z"/><path class="cls-16" d="M355.08,966.42c-1.17,4.73,74.36,15.31,73.1,20.07l-8.6,35.11-113.23-4.7C266.8,987.06,252,922.14,237.56,840.78Z"/><path class="cls-12" d="M332.58,773.53a67.86,67.86,0,0,0,16.92,13.41,55.77,55.77,0,0,0,20.22,6.83c7,.92,14.42.32,20.57-3,6.3-3.14,10.3-9.74,11-16.9l1.12.08a23.09,23.09,0,0,1-2.85,10.91,21.73,21.73,0,0,1-8.09,8.09c-6.73,3.89-14.73,4.6-22.16,3.66A55.31,55.31,0,0,1,348.29,789a59.54,59.54,0,0,1-16.57-14.79Z"/><path class="cls-12" d="M447.88,885.28l-2.14-.15c2.06-28.84,0-64.28-6.2-105.35l2.13-.32C447.86,820.68,450,856.28,447.88,885.28Z"/><rect class="cls-12" x="533.76" y="986.97" width="106.54" height="21.02"/><polygon class="cls-2" points="824.71 1007.99 610.68 1007.99 709.1 819.75 923.13 819.75 824.71 1007.99"/><path class="cls-12" d="M356.16,570.13c-25.08-24.72-72.38-14.33-71.66,27.23C232.9,611,230,667.59,250.82,696.61l17.91,1.44,3.94-21.14,10.39,21.5,50.17,3.22Z"/><path class="cls-14" d="M398.08,662.57v79c0,.71,0,1.4-.08,2.09a26.52,26.52,0,0,1-33.06,23.59,53.31,53.31,0,0,1-40-52.06l.4-52.6Z"/><path class="cls-12" d="M398.08,696.71v44.84c0,.71,0,1.4-.08,2.09-21.13-3.47-45.55-27.92-51.52-54.55Z"/><path class="cls-14" d="M440.82,668.42a142.51,142.51,0,0,1-4.5,18.81c-6.31,20-17.63,36.66-37.89,33.76-47.65-6.82-74.16-55.89-74.16-55.89l32.59-37.27,21.87-29.41,65.56,28.32A247,247,0,0,1,440.82,668.42Z"/><path class="cls-12" d="M338.36,652.54c20.91-.67,37.08-11.32,44-41.56,0,0,48.73,42,72.61,19.58,20-18.8-13.93-62.06-70.1-67.21a79.55,79.55,0,0,0-56.89,17.36c-27.23,21.81-29.83,72.55-4.39,90.11Z"/><path class="cls-9" d="M313.88,599.51c-1.37-4.94-.35-10.41,1.86-15.12a33.48,33.48,0,0,1,9.81-12.08,34.59,34.59,0,0,1,14-6.57,25.37,25.37,0,0,1,15.14,1.16,82.9,82.9,0,0,0-13,5.25,69.13,69.13,0,0,0-10.95,7,63.35,63.35,0,0,0-9.38,8.87A52.14,52.14,0,0,0,313.88,599.51Z"/><ellipse class="cls-14" cx="332.09" cy="655.89" rx="16.3" ry="19.7" transform="translate(-219.96 170.38) rotate(-21.82)"/><path class="cls-12" d="M332.09,666.71a23.25,23.25,0,0,0-.63-9.83,26.81,26.81,0,0,0-5.15-8.44l.7-.87A14.31,14.31,0,0,1,333.17,667Z"/><path class="cls-12" d="M410.39,656.14a4.87,4.87,0,1,1-4.84-5.36A5.12,5.12,0,0,1,410.39,656.14Z"/><path class="cls-12" d="M435.81,660.36a4.33,4.33,0,1,1-3.69-5.26A4.55,4.55,0,0,1,435.81,660.36Z"/><path class="cls-12" d="M410.15,642.69c.19,2.51-3.81,2.74-9.72,2.92s-10,2-10,.42,4.32-5.65,10.14-6.64C406.55,638.38,409.92,639.71,410.15,642.69Z"/><path class="cls-12" d="M429,645.1c-.44,2.47,2.51,3.11,6.87,3.87s7.18,3,7.4,1.42-2.55-6-6.76-7.6S429.52,642.17,429,645.1Z"/><path class="cls-12" d="M422,664.81a41.83,41.83,0,0,0,3.64,3.77l1.93,1.8a11.16,11.16,0,0,1,2,2.29,4,4,0,0,1,.61,1.9,3.78,3.78,0,0,1-.47,2,7.23,7.23,0,0,1-2.31,2.33,14.44,14.44,0,0,1-5.36,1.94l-.42-1a39.64,39.64,0,0,0,4.27-2.92,5.57,5.57,0,0,0,1.33-1.6c.23-.48.16-.64-.1-1.2-.64-1-2.26-2.44-3.33-3.88a16.49,16.49,0,0,1-2.81-4.89Z"/><path class="cls-12" d="M397.72,682.46c2.93,3.34,6,6.43,9.65,8.39A20.21,20.21,0,0,0,419.55,693l.3,1.08a15.05,15.05,0,0,1-6.93,1.31,15.79,15.79,0,0,1-6.91-2,22.18,22.18,0,0,1-9.24-10.3Z"/><circle class="cls-17" cx="380.53" cy="667.59" r="11.83"/><path class="cls-17" d="M440.82,668.42a142.51,142.51,0,0,1-4.5,18.81,11.83,11.83,0,0,1,4.5-18.81Z"/><polygon class="cls-9" points="305.88 808.29 237.56 840.77 258.99 891.57 330.62 858.53 305.88 808.29"/><path class="cls-13" d="M558.94,984.44c-1.89-1-3.08-1.59-3.08-1.59l.69-1.34s1.26.6,3.09,1.59Z"/><path class="cls-14" d="M587.27,991.5c-2.21,4.36-19.12-3.35-27-7.22,6.1,3.38,16.62,10,12,13.67-3.75,2.9-12.07-3.26-39.3-14.56,4.13,2,28.47,13.53,22.33,17.92-6.68,4.76-35.34-5.73-35.34-5.73l-24.85,13.35H466.39l-103.14.66a75,75,0,0,1-19.12-2.41,85.63,85.63,0,0,1-33.53-17.37A83.91,83.91,0,0,1,294.69,972,95.14,95.14,0,0,1,286.17,956L259,891.58l71.63-33.05L368,934.4l123.26,26.78,34.4-8.6c7.4-1.87,17.86,1.26,24.37,5.24C565.89,967.54,589.33,987.35,587.27,991.5Z"/><path class="cls-17" d="M346,996.52a31,31,0,0,1-1.87,10.66,85.63,85.63,0,0,1-33.53-17.37A83.91,83.91,0,0,1,294.69,972,31.54,31.54,0,0,1,346,996.52Z"/><path class="cls-15" d="M491.07,960.64a230.9,230.9,0,0,1,26-7.14,92.83,92.83,0,0,1,13.46-1.92,40,40,0,0,1,6.91.18c1.15.23,2.3.53,3.45.8s2.16.83,3.24,1.24c8.39,3.81,15.69,9.24,22.76,14.83s13.73,11.68,20.21,18l.3.29.06.36a5.4,5.4,0,0,1-.68,3.88,5.06,5.06,0,0,1-3.35,2,14.75,14.75,0,0,1-6.43-.63,64.53,64.53,0,0,1-11.13-4.67c-3.51-1.88-7-3.83-10.32-5.93s-6.65-4.28-10-6.43l1.52-2.42a180.27,180.27,0,0,1,17,11.27,45.88,45.88,0,0,1,7.69,7.06,10,10,0,0,1,1.49,2.53,4.61,4.61,0,0,1,.34,1.74,3.35,3.35,0,0,1-.73,2,5.19,5.19,0,0,1-2.91,1.62,16.12,16.12,0,0,1-2.76.4l-.28,0-.31-.13-31.11-13,.93-2.18A108.94,108.94,0,0,1,550.73,992c2.22,1.59,4.55,3,6.19,5.76a3.36,3.36,0,0,1,.25,2.74,3.67,3.67,0,0,1-1.84,1.9,10.1,10.1,0,0,1-4.29,1c-5.57.13-10.81-1.17-16-2.46s-10.27-3-15.31-4.81l.38-1.05c5,1.68,10.14,3.17,15.3,4.4s10.42,2.28,15.53,2c2.44-.1,5.35-1.17,4.16-2.78-1.12-1.88-3.42-3.47-5.54-4.89a108.57,108.57,0,0,0-14-7.3l.93-2.18,31.23,12.76-.59-.1a15.26,15.26,0,0,0,2.24-.33,2.85,2.85,0,0,0,1.47-.7c.43-.17-.15-1.71-1.13-2.87a42.93,42.93,0,0,0-7.23-6.54,175.35,175.35,0,0,0-16.77-11l1.51-2.42c3.3,2.11,6.5,4.39,9.86,6.39s6.69,4,10.11,5.87a60.94,60.94,0,0,0,10.58,4.51,12.47,12.47,0,0,0,5.18.61l.56-.1a4.13,4.13,0,0,0,.42-.22c.33-.09.43-.35.65-.52a2.87,2.87,0,0,0,.31-1.81l.36.66c-6.34-6.25-13-12.25-19.9-17.92s-14.1-11.07-22.05-14.79l-3-1.2c-1-.25-2.06-.54-3.1-.77a38.18,38.18,0,0,0-6.52-.24,92.63,92.63,0,0,0-13.22,1.6,231.75,231.75,0,0,0-26,6.51Z"/><polygon class="cls-12" points="259.42 892.55 258.52 890.6 329.2 857.99 299.76 789.09 301.74 788.25 332 859.07 259.42 892.55"/><rect class="cls-12" x="265.78" y="1194.31" width="3.75" height="322.96"/><rect class="cls-6" x="155.15" y="1164.21" width="225.02" height="44.43" rx="22.22"/><path class="cls-6" d="M225.1,1501.22h85.12a33.4,33.4,0,0,1,33.4,33.4v3.67a0,0,0,0,1,0,0H191.69a0,0,0,0,1,0,0v-3.67A33.4,33.4,0,0,1,225.1,1501.22Z"/><rect class="cls-12" x="642.73" y="982.45" width="3.75" height="599.9" transform="translate(-584.83 541.75) rotate(-32.25)"/><rect class="cls-12" x="344.65" y="1280.52" width="599.9" height="3.75" transform="translate(-783.9 1142.96) rotate(-57.74)"/><rect class="cls-6" x="364.16" y="1007.99" width="560.88" height="42.3"/><path class="cls-2" d="M411.18,333.61A117.21,117.21,0,1,1,528.39,216.4,117.35,117.35,0,0,1,411.18,333.61Zm0-231.92A114.71,114.71,0,1,0,525.89,216.4,114.84,114.84,0,0,0,411.18,101.69Z"/><circle class="cls-3" cx="490.44" cy="170.47" r="127.53"/><polygon class="cls-12" points="490.49 172.89 419.78 117.46 422.1 114.51 490.4 168.05 528.48 135.8 530.9 138.66 490.49 172.89"/><path class="cls-5" d="M159.49,445.5H94.73a18.87,18.87,0,0,0-18.87,18.87v64.76A18.87,18.87,0,0,0,94.73,548h46.21l19.92,27.5V547.93a18.85,18.85,0,0,0,17.5-18.8V464.37A18.87,18.87,0,0,0,159.49,445.5Z"/><path class="cls-2" d="M162.11,579.36l-21.8-30.11H94.73a20.14,20.14,0,0,1-20.12-20.12V464.37a20.14,20.14,0,0,1,20.12-20.12h64.76a20.15,20.15,0,0,1,20.12,20.12v64.76a20.18,20.18,0,0,1-17.5,19.93ZM94.73,446.75a17.64,17.64,0,0,0-17.62,17.62v64.76a17.63,17.63,0,0,0,17.62,17.62h46.85l18,24.9V546.77l1.16-.08a17.67,17.67,0,0,0,16.34-17.56V464.37a17.65,17.65,0,0,0-17.62-17.62Z"/><polygon class="cls-2" points="125.78 530.08 99.86 492.64 106.02 488.37 125.1 515.92 153.83 464.51 160.38 468.17 125.78 530.08"/><rect class="cls-12" x="50.44" y="1534.54" width="1536.44" height="3.75"/></g></g></svg>